<svg xmlns="http://www.w3.org/2000/svg" width="32" height="32.027"><path fill="#3DB39E" d="M27.313 4.699c-6.249-6.25-16.379-6.248-22.627 0-6.25 6.249-6.25 16.378 0 22.627 6.248 6.248 16.379 6.249 22.627 0 6.249-6.248 6.249-16.378 0-22.627zm-2.122 20.505c-5.078 5.078-13.305 5.079-18.384.001-5.077-5.077-5.077-13.308 0-18.385 5.078-5.078 13.307-5.078 18.385 0 5.079 5.079 5.077 13.306-.001 18.384z"/><path fill="#3DB39E" d="M12.62 20.806l1.967-1.966 3.536 3.535c.392.392 1.021.393 1.414 0l2.828-2.828c.391-.391.392-1.023 0-1.414l-3.535-3.536 1.965-1.964c.768-.768.569-1.593-.436-1.833l-8.131.047c-1.008-.241-1.635.387-1.395 1.394l-.045 8.13c.238 1.007 1.063 1.204 1.832.435z"/></svg>