<svg xmlns="http://www.w3.org/2000/svg" width="32" height="32.027"><path fill="#3DB39E" d="M27.313 4.699c-6.248-6.248-16.378-6.249-22.627 0-6.248 6.248-6.249 16.379 0 22.627 6.249 6.25 16.379 6.248 22.627 0 6.25-6.249 6.25-16.378 0-22.627zm-2.121 20.506c-5.077 5.077-13.307 5.078-18.385 0-5.078-5.078-5.076-13.306.002-18.383 5.078-5.078 13.306-5.08 18.384-.001 5.077 5.076 5.077 13.307-.001 18.384z"/><path fill="#3DB39E" d="M19.38 11.218l-1.967 1.967-3.535-3.536c-.391-.391-1.022-.392-1.414 0l-2.829 2.829c-.39.39-.391 1.023 0 1.414l3.536 3.536-1.964 1.965c-.768.768-.57 1.592.435 1.832l8.132-.047c1.007.241 1.635-.387 1.394-1.395l.046-8.13c-.24-1.006-1.066-1.204-1.834-.435z"/></svg>