<svg xmlns="http://www.w3.org/2000/svg" width="32" height="32.027"><path fill="#3DB39E" d="M27.313 4.699c-6.249-6.25-16.378-6.25-22.627 0-6.248 6.248-6.249 16.379 0 22.627 6.248 6.248 16.379 6.249 22.627 0 6.25-6.249 6.249-16.379 0-22.627zm-2.121 20.506c-5.078 5.078-13.306 5.076-18.383-.001-5.078-5.079-5.08-13.305-.001-18.384 5.077-5.077 13.308-5.077 18.385 0 5.077 5.078 5.078 13.307-.001 18.385z"/><path fill="#3DB39E" d="M11.206 12.632l1.967 1.967-3.536 3.536c-.391.391-.392 1.021 0 1.414l2.829 2.828c.39.391 1.023.392 1.414 0l3.536-3.535 1.965 1.965c.768.768 1.593.569 1.832-.436l-.047-8.131c.241-1.008-.387-1.635-1.395-1.395l-8.13-.045c-1.006.239-1.204 1.064-.435 1.832z"/></svg>