<svg xmlns="http://www.w3.org/2000/svg" width="32" height="32.027"><path fill="#3DB39E" d="M27.313 4.699c-6.248-6.248-16.378-6.249-22.627 0-6.25 6.249-6.248 16.379 0 22.627 6.249 6.25 16.378 6.25 22.627 0 6.249-6.248 6.249-16.378 0-22.627zm-2.121 20.506c-5.077 5.077-13.308 5.077-18.385 0-5.078-5.077-5.078-13.307 0-18.385 5.079-5.079 13.306-5.076 18.384.001 5.079 5.079 5.08 13.306.001 18.384z"/><path fill="#3DB39E" d="M20.794 19.392l-1.966-1.967 3.535-3.535c.392-.391.393-1.022 0-1.414l-2.828-2.829c-.391-.39-1.023-.391-1.414 0l-3.536 3.536-1.964-1.964c-.768-.768-1.593-.57-1.833.435l.047 8.132c-.241 1.007.387 1.635 1.394 1.394l8.13.046c1.006-.24 1.203-1.065.435-1.834z"/></svg>