<svg xmlns="http://www.w3.org/2000/svg" width="32" height="32.027"><path fill="#2394BC" d="M16 .013c-8.836 0-16 7.163-16 15.999 0 8.837 7.164 16 16 16s16-7.163 16-16c0-8.835-7.164-15.999-16-15.999zm0 28.999c-7.18 0-13-5.82-13-13s5.82-13 13-13 13 5.82 13 13-5.82 13-13 13zm3.926-17.868l-3.918 2.566v-1.957c0-.676-.537-.949-1.082-.609l-5.492 4.253c-.429.247-.682.896.012 1.3l5.48 4.191c.545.341 1.082.065 1.082-.609v-1.925l3.918 2.534c.545.341 1.082.065 1.082-.609v-8.525c0-.676-.537-.95-1.082-.61z"/></svg>