<svg xmlns="http://www.w3.org/2000/svg" width="32" height="32.027"><path fill="#3DB39E" d="M16 .012c-8.838 0-16 7.164-16 16 0 8.837 7.163 16 16 16 8.836 0 15.999-7.163 15.999-16 0-8.835-7.163-16-15.999-16zm0 29c-7.18 0-13-5.82-13-13s5.821-13 13-13 12.999 5.82 12.999 13-5.82 13-12.999 13zm6.288-19.806c-.68-.406-1.549-.165-1.94.54l-5.365 9.637-2.988-3.637c-.541-.623-1.26-.946-1.939-.54-.68.407-.961 1.386-.521 2.014l4.158 5.061c.311.404.666.646 1.037.715l.003.006.038.002c.084.013 1.34.245 1.881-.723l6.158-11.061c.391-.706.158-1.607-.522-2.014z"/></svg>