<svg xmlns="http://www.w3.org/2000/svg" width="32" height="32.027"><path fill="#3DB39E" d="M16 .013c-8.836 0-16 7.164-16 16 0 8.837 7.164 16 16 16s16-7.163 16-16c0-8.836-7.164-16-16-16zm0 29c-7.18 0-13-5.82-13-13s5.82-13 13-13 13 5.82 13 13-5.82 13-13 13zm2.833-13.01l2.829-2.829c.39-.39.39-1.023 0-1.413l-1.415-1.415c-.391-.39-1.023-.391-1.414 0l-2.829 2.829-2.827-2.827c-.391-.392-1.025-.392-1.416-.002l-1.415 1.415c-.39.39-.39 1.023.001 1.415l2.827 2.827-2.821 2.821c-.391.391-.391 1.023 0 1.415l1.414 1.414c.391.39 1.024.39 1.414 0l2.822-2.822 2.842 2.843c.392.391 1.025.392 1.416.001l1.414-1.414c.391-.391.39-1.024-.001-1.415l-2.841-2.843z"/></svg>