<svg xmlns="http://www.w3.org/2000/svg" width="32" height="32.027"><path fill="#E2574C" d="M18.833 16.001l2.828-2.828c.391-.392.391-1.024 0-1.414l-1.414-1.415c-.391-.39-1.023-.391-1.414 0l-2.829 2.829-2.827-2.827c-.392-.392-1.025-.392-1.416-.002l-1.414 1.415c-.391.39-.39 1.024.002 1.415l2.827 2.827-2.822 2.822c-.391.391-.391 1.023 0 1.414l1.414 1.415c.391.39 1.023.391 1.414 0l2.822-2.822 2.842 2.843c.392.392 1.025.392 1.416.001l1.414-1.414c.391-.391.39-1.024-.001-1.416l-2.842-2.843zm-2.833-15.988c-8.837 0-16 7.163-16 15.999 0 8.837 7.163 16 16 16s16-7.163 16-16c0-8.835-7.163-15.999-16-15.999zm0 28.999c-7.18 0-13-5.82-13-13s5.82-13 13-13 13 5.82 13 13-5.82 13-13 13z"/></svg>