<svg xmlns="http://www.w3.org/2000/svg" width="27.018" height="27.049"><path fill="#3DB39E" d="M17.499 11.023h5.494c1.14-.267 1.361-1.225.496-2.073l-1.298-1.224 4.524-4.511c.4-.398.401-1.045.001-1.443l-1.446-1.441c-.398-.398-1.049-.397-1.448.001l-4.604 4.59-1.458-1.375c-.736-.859-1.528-.639-1.76.492l.008 5.48c-.029 1.197.58 1.472 1.491 1.504z"/><path fill="#3DB39E" d="M22.194 19.331l1.298-1.229c.867-.852.648-1.812-.491-2.079h-5.501c-.911.033-1.521.31-1.49 1.513l-.008 5.497c.23 1.134 1.022 1.354 1.76.492l1.457-1.379 4.604 4.603c.399.399 1.049.399 1.448.002l1.447-1.447c.4-.4.399-1.049-.001-1.449l-4.523-4.524z"/><path fill="#3DB39E" d="M9.231 3.515l-1.452 1.375-4.593-4.592c-.399-.398-1.046-.399-1.444-.001l-1.443 1.443c-.398.399-.397 1.046.001 1.444l4.512 4.511-1.294 1.224c-.863.849-.645 1.807.491 2.073h5.482c.909-.032 1.516-.307 1.485-1.506l.009-5.48c-.23-1.13-1.02-1.351-1.754-.491z"/><path fill="#3DB39E" d="M9.491 15.991h-5.462c-1.136.269-1.375 1.229-.512 2.08l1.294 1.229-4.511 4.521c-.398.4-.399 1.049-.001 1.449l1.443 1.447c.397.397 1.046.397 1.444-.002l4.591-4.603 1.452 1.379c.734.861 1.523.642 1.755-.491l-.009-5.498c.032-1.202-.574-1.478-1.484-1.511z"/></svg>