<svg xmlns="http://www.w3.org/2000/svg" width="32" height="32.027"><path fill="#2394BC" d="M16 .013c-8.836 0-16 7.164-16 16 0 8.837 7.164 16 16 16 8.837 0 16-7.163 16-16 0-8.836-7.163-16-16-16zm0 29c-7.18 0-13-5.82-13-13s5.82-13 13-13 13 5.82 13 13-5.82 13-13 13zm2.826-13.622c.99-.589 1.556-1.652 1.556-2.716 0-2.242-2.04-3.648-4.383-3.648-2.403 0-4.362 1.426-4.362 3.648 0 1.196.586 2.07 1.535 2.716-1.272.646-2.161 1.767-2.161 3.287 0 2.546 2.201 4.331 4.988 4.331 2.706 0 4.988-1.69 4.988-4.331 0-1.462-.787-2.64-2.161-3.287zm-2.827-3.856c.949 0 1.475.627 1.475 1.444 0 .854-.546 1.443-1.475 1.443s-1.454-.589-1.454-1.443c0-.817.505-1.444 1.454-1.444zm0 8.852c-1.232 0-1.838-.931-1.838-1.899 0-1.063.666-1.899 1.838-1.899 1.11 0 1.838.703 1.838 1.899 0 .969-.687 1.899-1.838 1.899z"/></svg>