<svg xmlns="http://www.w3.org/2000/svg" width="32" height="32.027"><path fill="#2394BC" d="M19.5 18.012h-7c-.828 0-1.5.672-1.5 1.5s.672 1.5 1.5 1.5h7c.828 0 1.5-.672 1.5-1.5s-.672-1.5-1.5-1.5zm-3.5-17.999c-8.837 0-16 7.163-16 15.999 0 8.837 7.163 16 16 16s16-7.163 16-16c0-8.835-7.163-15.999-16-15.999zm0 28.999c-7.18 0-13-5.82-13-13s5.82-13 13-13 13 5.82 13 13-5.82 13-13 13zm.685-18.554c-.403-.693-1.054-.44-1.3-.012l-4.253 5.492c-.341.546-.066 1.082.608 1.082h8.526c.675 0 .949-.536.609-1.082l-4.19-5.48z"/></svg>