<svg xmlns="http://www.w3.org/2000/svg" width="32" height="32.027"><path fill="#3DB39E" d="M22.02 11.013h-12.018c-.553 0-1.002.448-1.002 1v2c0 .553.449 1 1.002 1h12.018c.554 0 1.002-.447 1.002-1v-2c-.001-.551-.449-1-1.002-1zm-6.02-11c-8.836 0-16 7.164-16 16 0 8.837 7.164 16 16 16s16-7.163 16-16c0-8.836-7.164-16-16-16zm0 29c-7.18 0-13-5.82-13-13s5.82-13 13-13 13 5.82 13 13-5.82 13-13 13zm6.02-12h-12.018c-.553 0-1.002.448-1.002 1v2c0 .553.449 1 1.002 1h12.018c.554 0 1.002-.447 1.002-1v-2c-.001-.551-.449-1-1.002-1z"/></svg>