<svg xmlns="http://www.w3.org/2000/svg" width="32" height="32"><path fill="#E2574C" d="M16 0c-8.836 0-16 7.164-16 16 0 8.837 7.164 16 16 16 8.837 0 16-7.162 16-16 0-8.836-7.163-16-16-16zm0 29c-7.18 0-13-5.82-13-13s5.82-13 13-13 13 5.82 13 13-5.82 13-13 13zm.001-21.983c-1.146 0-2.013.598-2.013 1.564v8.86c0 .967.867 1.563 2.013 1.563 1.118 0 2.013-.621 2.013-1.563v-8.86c0-.943-.895-1.564-2.013-1.564zm0 13.983c-1.101 0-1.997.896-1.997 1.998 0 1.1.896 1.996 1.997 1.996s1.996-.896 1.996-1.996c0-1.102-.895-1.998-1.996-1.998z"/></svg>