<svg xmlns="http://www.w3.org/2000/svg" width="24.984" height="25"><path fill="#3DB39E" d="M6.189 3.31l1.296-1.227c.866-.852.642-1.813-.499-2.08h-5.489c-.91.033-1.519.308-1.489 1.511l-.008 5.495c.231 1.133 1.022 1.354 1.76.492l1.457-1.377 4.605 4.603c.4.399 1.049.4 1.448.002l1.447-1.447c.399-.398.398-1.048-.001-1.447l-4.527-4.525zm3.053 10.998c-.397-.398-1.045-.398-1.443.002l-4.591 4.587-1.453-1.375c-.735-.86-1.524-.639-1.755.49l.009 5.482c-.029 1.196.576 1.474 1.485 1.505h5.476c1.136-.269 1.36-1.226.497-2.073l-1.292-1.223 4.51-4.512c.398-.398.399-1.046.001-1.442l-1.444-1.441zm6.497-3.58c.397.398 1.046.397 1.444-.002l4.592-4.603 1.453 1.377c.733.862 1.522.641 1.753-.492l-.008-5.495c.029-1.203-.578-1.478-1.485-1.511h-5.48c-1.137.268-1.355 1.229-.492 2.08l1.294 1.228-4.513 4.523c-.398.399-.398 1.049 0 1.447l1.442 1.448zm7.493 6.793l-1.449 1.375-4.576-4.587c-.398-.4-1.045-.4-1.44-.002l-1.439 1.441c-.396.396-.395 1.044.002 1.442l4.497 4.51-1.291 1.225c-.859.849-.639 1.807.494 2.073h5.463c.905-.031 1.513-.309 1.481-1.505l.008-5.482c-.231-1.128-1.018-1.349-1.75-.49z"/></svg>