<svg xmlns="http://www.w3.org/2000/svg" width="32" height="32.027"><path fill="#2394BC" d="M16 .013c-8.836 0-16 7.164-16 16 0 8.837 7.164 16 16 16s16-7.163 16-16c0-8.836-7.164-16-16-16zm0 29c-7.18 0-13-5.82-13-13s5.82-13 13-13 13 5.82 13 13-5.82 13-13 13zm.744-15.481c-.516 0-1.051.097-1.545.192l.309-2.05h3.874c.371 0 1.442-.116 1.442-1.451 0-.696-.557-1.218-1.504-1.218h-4.967c-.988 0-1.422.329-1.607 1.838l-.515 4.081c-.021.212-.062.406-.062.657 0 .329.412.909 1.215.909 1.051 0 1.236-.638 2.432-.638 1.278 0 1.979.792 1.979 1.953 0 1.219-.742 2.533-2.184 2.533-1.381 0-2.371-1.237-3.195-1.237-.762 0-1.4.6-1.4 1.315 0 1.702 3.07 2.592 4.533 2.592 3.564 0 5.461-2.128 5.461-5.358 0-2.262-1.772-4.118-4.266-4.118z"/></svg>