<svg xmlns="http://www.w3.org/2000/svg" width="32" height="32.027"><path fill="#2394BC" d="M16 .013c-8.836 0-16 7.164-16 16 0 8.837 7.164 16 16 16s16-7.163 16-16c0-8.836-7.164-16-16-16zm0 29c-7.18 0-13-5.82-13-13s5.82-13 13-13 13 5.82 13 13-5.82 13-13 13zm3.584-11.647h-.564v-5.885c0-1.744-.939-2.454-2.118-2.454-1.057 0-1.626.346-2.073 1.112l-4.553 7.782c-.122.191-.285.422-.285.844 0 .498.427 1.131 1.423 1.131h4.899v1.629c0 1.017.207 1.495 1.244 1.495s1.463-.479 1.463-1.495v-1.629h.564c.793 0 1.423-.498 1.423-1.266 0-.766-.63-1.264-1.423-1.264zm-3.209 0h-2.785l2.744-5.349h.041v5.349z"/></svg>