<svg xmlns="http://www.w3.org/2000/svg" width="32" height="32"><path fill="#3DB39E" d="M31 12h-6c-.553 0-1 .447-1 1v6c0 .553.447 1 1 1h6c.553 0 1-.447 1-1v-6c0-.553-.447-1-1-1zm0-12h-6c-.553 0-1 .448-1 1v6c0 .553.447 1 1 1h6c.553 0 1-.447 1-1v-6c0-.552-.447-1-1-1zm-24 0h-6c-.552 0-1 .448-1 1v6c0 .553.448 1 1 1h6c.552 0 1-.447 1-1v-6c0-.552-.448-1-1-1zm0 12h-6c-.552 0-1 .447-1 1v6c0 .553.448 1 1 1h6c.552 0 1-.447 1-1v-6c0-.553-.448-1-1-1zm24 12h-6c-.553 0-1 .447-1 1v6c0 .553.447 1 1 1h6c.553 0 1-.447 1-1v-6c0-.553-.447-1-1-1zm-24 0h-6c-.552 0-1 .447-1 1v6c0 .553.448 1 1 1h6c.552 0 1-.447 1-1v-6c0-.553-.448-1-1-1zm12-12h-6c-.552 0-1 .447-1 1v6c0 .553.448 1 1 1h6c.553 0 1-.447 1-1v-6c0-.553-.447-1-1-1zm0-12h-6c-.552 0-1 .448-1 1v6c0 .553.448 1 1 1h6c.553 0 1-.447 1-1v-6c0-.552-.447-1-1-1zm0 24h-6c-.552 0-1 .447-1 1v6c0 .553.448 1 1 1h6c.553 0 1-.447 1-1v-6c0-.553-.447-1-1-1z"/></svg>