<svg xmlns="http://www.w3.org/2000/svg" width="32" height="32"><path fill-rule="evenodd" clip-rule="evenodd" fill="#3BB39D" d="M7 0h-6c-.552 0-1 .448-1 1v6c0 .553.448 1 1 1h6c.552 0 1-.447 1-1v-6c0-.552-.448-1-1-1zm0 12h-6c-.552 0-1 .447-1 1v6c0 .553.448 1 1 1h6c.552 0 1-.447 1-1v-6c0-.553-.448-1-1-1zm0 12h-6c-.552 0-1 .447-1 1v6c0 .553.448 1 1 1h6c.552 0 1-.447 1-1v-6c0-.553-.448-1-1-1zm24-12h-18c-.553 0-1 .447-1 1v6c0 .553.447 1 1 1h18c.553 0 1-.447 1-1v-6c0-.553-.447-1-1-1zm0-12h-18c-.553 0-1 .448-1 1v6c0 .553.447 1 1 1h18c.553 0 1-.447 1-1v-6c0-.552-.447-1-1-1zm0 24h-18c-.553 0-1 .447-1 1v6c0 .553.447 1 1 1h18c.553 0 1-.447 1-1v-6c0-.553-.447-1-1-1z"/></svg>