<svg xmlns="http://www.w3.org/2000/svg" width="32" height="32"><path fill="#37B29D" d="M9 32h6v-3h-6v3zm0-29.001h6v-2.999h-6v2.999zm-5-2.999c-2.208 0-4 1.79-4 3.999v3.019l3-.008v-2.011c0-1.104.896-2 2-2h1.984l-.01-2.999h-2.974zm-1 27v-2.01l-3-.008v3.018c0 2.209 1.791 4 4 4h2.974l.011-3h-1.985c-1.104 0-2-.896-2-2zm0-18.001h-3v6.001h3v-6.001zm14 23.001h6v-3h-6v3zm11-32h-2.973l-.012 2.999h1.985c1.105 0 2 .896 2 2v2.011l3 .008v-3.019c0-2.209-1.791-3.999-4-3.999zm1 15h3v-6.001h-3v6.001zm0 12c0 1.104-.895 2-2 2h-1.984l.012 3h2.972c2.209 0 4-1.791 4-4v-3.018l-3 .008v2.01zm-12-24.001h6v-2.999h-6v2.999zm12 20.001h3v-5.999h-3v5.999zm-26-5.999h-3v5.999h3v-5.999z"/></svg>