<svg xmlns="http://www.w3.org/2000/svg" width="32" height="28"><path fill="#3DB39E" d="M31 0h-2c-.553 0-1 .448-1 1v11h-3.0159999999999996v-1.781c0-1.085-.724-1.529-1.607-.986l-3.727 3.781c-.698.698-.714 1.26 0 1.974l3.727 3.781c.884.543 1.607.099 1.607-.986v-1.783h3.0159999999999996v11c0 .553.447 1 1 1h2c.553 0 1-.447 1-1v-26c0-.552-.447-1-1-1zm-22.377 9.232c-.884-.543-1.607-.099-1.607.986v1.782h-3.0159999999999996v-11c0-.552-.448-1-1-1h-2c-.552 0-1 .448-1 1v26c0 .553.448 1 1 1h2c.552 0 1-.447 1-1v-11h3.0159999999999996v1.782c0 1.085.723 1.529 1.607.986l3.727-3.781c.852-.853.713-1.26 0-1.974l-3.727-3.781z"/></svg>