<svg xmlns="http://www.w3.org/2000/svg" width="32" height="32.027"><path fill="#2394BC" d="M17.566 15.401l-5.491-4.227c-.546-.338-1.083-.065-1.083.605v8.473c0 .671.537.943 1.083.605l5.479-4.165c.695-.4.441-1.046.012-1.291zm-1.566-15.388c-8.837 0-16 7.163-16 15.999 0 8.837 7.163 16 16 16s16-7.163 16-16c0-8.835-7.163-15.999-16-15.999zm0 28.999c-7.18 0-13-5.82-13-13s5.82-13 13-13 13 5.82 13 13-5.82 13-13 13zm3.5-18c-.828 0-1.5.672-1.5 1.5v7c0 .828.672 1.5 1.5 1.5s1.5-.672 1.5-1.5v-7c0-.828-.672-1.5-1.5-1.5z"/></svg>