<svg xmlns="http://www.w3.org/2000/svg" width="32" height="32.027"><path fill="#2394BC" d="M16 .013c-8.837 0-16 7.164-16 16 0 8.837 7.163 16 16 16s16-7.163 16-16c0-8.836-7.163-16-16-16zm0 29c-7.18 0-13-5.82-13-13s5.82-13 13-13 13 5.82 13 13-5.82 13-13 13zm-.001-19.986c-2.95 0-5.003 2.242-5.003 4.712 0 2.241 1.774 4.255 4.166 4.255.438 0 .896-.076 1.256-.228l.039.038c-.657.893-1.953 2.108-2.75 3.039-.239.285-.419.514-.419.779 0 .684.857 1.387 1.415 1.387.16 0 .379 0 .599-.133.239-.152.478-.305.638-.456 2.013-1.786 5.062-5.813 5.062-8.682 0-2.525-1.934-4.711-5.003-4.711zm0 6.688c-1.256 0-1.894-.969-1.894-1.976 0-1.103.758-1.976 1.894-1.976 1.196 0 1.894.912 1.894 1.976 0 1.12-.758 1.976-1.894 1.976z"/></svg>