<svg xmlns="http://www.w3.org/2000/svg" width="32" height="32.027"><path fill="#3DB39E" d="M16 .013c-8.837 0-16 7.164-16 16 0 8.837 7.163 16 16 16 8.836 0 16-7.163 16-16-.001-8.836-7.164-16-16-16zm0 29c-7.18 0-13-5.82-13-13s5.82-12.999 13-12.999c7.179 0 13 5.819 13 12.999s-5.821 13-13 13zm6.019-15h-4.02v-4c0-.552-.448-1-1-1h-2c-.553 0-1 .448-1 1v4h-3.998c-.554 0-1.002.448-1.002 1v2c0 .553.448 1 1.002 1h3.999v3.991c0 .552.447.999 1 .999h2c.552 0 1-.447 1-.999v-3.991h4.02c.554 0 1.002-.447 1.002-1v-2c-.001-.551-.45-1-1.003-1z"/></svg>