<svg xmlns="http://www.w3.org/2000/svg" width="29.998" height="32.006"><path fill="#2695BD" d="M25.608 6.115c-1.19-1.205-2.254-2.165-3.801-2.923-.972-.477-2.145-.066-2.615.917-.473.983-.065 2.166.906 2.643 1.152.564 1.926 1.188 2.815 2.088 4.364 4.413 4.364 11.593 0 16.005-2.114 2.139-4.927 3.314-7.916 3.314-2.99 0-5.802-1.176-7.916-3.314-4.364-4.412-4.364-11.592 0-16.005.892-.901 1.774-1.523 2.869-2.086.925-.478 1.312-1.66.863-2.644-.449-.982-1.415-1.386-2.363-.922-1.503.738-2.869 1.722-4.062 2.927-5.851 5.915-5.851 15.538 0 21.454 2.926 2.957 6.768 4.437 10.61 4.437 3.843 0 7.685-1.479 10.61-4.437 5.853-5.914 5.853-15.538 0-21.454zm-10.608 9.885c1.104 0 2-.896 2-2v-12c0-1.104-.896-2-2-2s-2 .896-2 2v12c0 1.105.896 2 2 2z"/></svg>