<svg xmlns="http://www.w3.org/2000/svg" width="32" height="25.936"><path fill="#3DB39E" d="M8.781 12.985h-1.752v-.014c0-4.88 3.894-8.986 8.86-8.963 2.421.011 4.645.989 6.23 2.588l2.891-2.789c-2.334-2.354-5.559-3.809-9.121-3.809-7.118 0-12.888 5.812-12.898 12.985h-1.772c-1.086 0-1.53.726-.987 1.615l3.781 3.748c.75.75 1.201.773 1.974 0l3.781-3.748c.543-.888.098-1.613-.987-1.613zm22.987-1.56l-3.781-3.74c-.771-.771-1.248-.725-1.973 0l-3.781 3.74c-.543.887-.1 1.613.986 1.613h1.749c-.028 4.848-3.909 8.918-8.858 8.895-2.42-.01-4.643-.986-6.23-2.584l-2.891 2.785c2.335 2.35 5.56 3.803 9.121 3.803 7.096 0 12.85-5.77 12.896-12.898h1.775c1.087-.001 1.53-.728.987-1.614z"/></svg>