<svg xmlns="http://www.w3.org/2000/svg" width="31.819" height="28.998" viewBox="-1.425 0.501 31.819 28.998" enable-background="new -1.425 0.501 31.819 28.998"><path fill="#3DB39E" d="M29.85 5.514l-4.727-4.781c-.884-.543-1.607-.099-1.607.986v2.781h-15.014c-9.224 0-9.002 6.448-9.002 7v7s3.986-3.931 4-4v-2.942c.007.065.207-3.058 5.002-3.058h15.014v2.782c0 1.085.724 1.529 1.607.986l4.727-4.781c.738-.738.714-1.26 0-1.973zm-.35 5.986s-3.986 3.931-4 4v2.942c-.006-.064-.206 3.058-5.002 3.058h-15.013v-2.781c0-1.086-.724-1.529-1.607-.987l-4.727 4.782c-.743.743-.791 1.183 0 1.973l4.727 4.781c.884.543 1.607.099 1.607-.986v-2.782h15.014c9.224 0 9.002-6.447 9.002-7v-7z"/></svg>