<svg xmlns="http://www.w3.org/2000/svg" width="32" height="32.027"><path fill="#2394BC" d="M16 .013c-8.836 0-16 7.164-16 16 0 8.837 7.164 16 16 16s16-7.163 16-16c0-8.836-7.164-16-16-16zm0 29c-7.18 0-13-5.82-13-13s5.82-13 13-13 13 5.82 13 13-5.82 13-13 13zm.836-14.97c-.438 0-.896.076-1.256.229l-.039-.039c.657-.893 1.953-2.108 2.75-3.039.239-.285.418-.513.418-.778 0-.685-.856-1.388-1.414-1.388-.16 0-.379 0-.598.134-.24.151-.479.304-.639.456-2.013 1.785-5.062 5.812-5.062 8.682 0 2.526 1.934 4.711 5.003 4.711 2.95 0 5.003-2.242 5.003-4.711 0-2.244-1.773-4.257-4.166-4.257zm-.837 6.231c-1.196 0-1.894-.912-1.894-1.976 0-1.121.758-1.977 1.894-1.977 1.256 0 1.894.97 1.894 1.977 0 1.102-.758 1.976-1.894 1.976z"/></svg>