<svg xmlns="http://www.w3.org/2000/svg" width="31.793" height="28"><path fill="#3DB39E" d="M31.246 13.014l-3.729-3.781c-.885-.543-1.605-.099-1.605.986v1.781h-3.018v-11c0-.552-.449-1-1-1h-2c-.553 0-1 .448-1 1v26c0 .553.447 1 1 1h2c.551 0 1-.447 1-1v-11h3.018v1.782c0 1.085.723 1.528 1.605.985l3.729-3.781c.748-.747.713-1.259 0-1.972zm-19.352-13.014h-2c-.552 0-1 .448-1 1v11h-3.0159999999999996v-1.781c0-1.085-.723-1.529-1.607-.986l-3.727 3.781c-.713.714-.74 1.234 0 1.974l3.727 3.781c.884.543 1.607.099 1.607-.986v-1.783h3.0159999999999996v11c0 .553.448 1 1 1h2c.552 0 1-.447 1-1v-26c0-.552-.448-1-1-1z"/></svg>