<svg xmlns="http://www.w3.org/2000/svg" width="32" height="32.027"><path fill="#2394BC" d="M16 .013c-8.836 0-16 7.164-16 16 0 8.837 7.164 16 16 16s16-7.163 16-16c0-8.836-7.164-16-16-16zm0 29c-7.18 0-13-5.82-13-13s5.82-13 13-13 13 5.82 13 13-5.82 13-13 13zm2.762-13.603c1.003-.664 1.495-1.709 1.495-2.906 0-1.481-1.259-3.477-3.885-3.477-2.024 0-3.976 1.597-3.976 3.078 0 .703.438 1.405 1.186 1.405 1.24 0 1.003-1.861 2.735-1.861.821 0 1.313.551 1.313 1.272 0 2.109-2.59.76-2.59 2.755 0 2.241 3.101.285 3.101 2.944 0 1.007-.767 1.767-1.715 1.767-2.061 0-1.769-2.223-3.009-2.223-.657 0-1.404.532-1.404 1.273 0 1.501 1.678 3.571 4.377 3.571 2.59 0 4.596-1.919 4.596-4.198 0-1.5-.912-2.772-2.224-3.4z"/></svg>