<svg xmlns="http://www.w3.org/2000/svg" width="32" height="32.027"><path fill="#2394BC" d="M16 .013c-8.837 0-16 7.164-16 16 0 8.837 7.163 16 16 16s16-7.163 16-16c0-8.836-7.163-16-16-16zm0 29c-7.18 0-13-5.82-13-13s5.82-13 13-13 13 5.82 13 13-5.82 13-13 13zm3.379-8.841h-3.584c1.752-2.065 4.57-4.447 4.57-7.13 0-2.451-1.853-4.014-4.387-4.014-2.535 0-4.905 2.011-4.905 4.443 0 .753.515 1.408 1.504 1.408 1.979 0 .907-3.188 3.277-3.188.845 0 1.484.694 1.484 1.486 0 .694-.351 1.293-.722 1.795-1.566 2.122-3.421 3.859-5.131 5.77-.206.231-.475.579-.475.984 0 .888.701 1.273 1.607 1.273h6.883c.783 0 1.484-.511 1.484-1.398s-.699-1.429-1.605-1.429z"/></svg>