<svg xmlns="http://www.w3.org/2000/svg" width="32" height="32"><path fill="#35B29D" d="M5 3h1.984l-.01-3h-2.974c-2.209 0-4 1.791-4 4v3.018l3-.008v-2.01c0-1.104.896-2 2-2zm1.974 29l.011-2.999h-1.985c-1.104 0-2-.896-2-2v-2.011l-3-.008v3.019c0 2.209 1.791 3.999 4 3.999h2.974zm-3.974-15h-3v6.001h3v-6.001zm12 12.001h-6v2.999h6v-2.999zm-12-20.001h-3v5.999h3v-5.999zm6-6h6v-3h-6v3zm20 20.001h3v-6.001h-3v6.001zm3 5v-3.019l-3 .008v2.011c0 1.104-.896 2-2 2h-1.985l.011 2.999h2.974c2.209 0 4-1.79 4-3.999zm-3-13.002h3v-5.999h-3v5.999zm0-7.989l3 .008v-3.018c0-2.209-1.791-4-4-4h-2.974l-.012 3h1.986c1.104 0 2 .896 2 2v2.01zm-12-4.01h6v-3h-6v3zm0 29h6v-2.999h-6v2.999zm5.768-17.604l-5.782-5.716c-.543-.882-1.431-.882-1.974 0l-5.781 5.717c-.542.88-.098 1.603.988 1.603h2.781v6.001c0 .552.447 1 1 1h4c.553 0 1-.448 1-1v-6.001h2.781c1.085 0 1.53-.723.987-1.604z"/></svg>