<svg xmlns="http://www.w3.org/2000/svg" width="32" height="32.027"><path fill="#2394BC" d="M16 .013c-8.837 0-16 7.164-16 16 0 8.837 7.163 16 16 16s16-7.163 16-16c0-8.836-7.163-16-16-16zm0 29c-7.18 0-13-5.82-13-13s5.82-13 13-13 13 5.82 13 13-5.82 13-13 13zm-.001-19.986c-3.802 0-4.987 3.895-4.987 6.991s1.186 6.991 4.987 6.991 4.987-3.895 4.987-6.991-1.185-6.991-4.987-6.991zm0 11.399c-1.92 0-2.052-3.059-2.052-4.407 0-1.443.132-4.407 2.052-4.407s2.052 2.964 2.052 4.407c0 1.348-.132 4.407-2.052 4.407z"/></svg>