<?xml version="1.0" encoding="utf-8"?>
<!-- Generator: Adobe Illustrator 16.2.1, SVG Export Plug-In . SVG Version: 6.00 Build 0)  -->
<!DOCTYPE svg PUBLIC "-//W3C//DTD SVG 1.1//EN" "http://www.w3.org/Graphics/SVG/1.1/DTD/svg11.dtd">
<svg version="1.1" id="Слой_1" xmlns="http://www.w3.org/2000/svg" xmlns:xlink="http://www.w3.org/1999/xlink" x="0px" y="0px"
	 width="32px" height="29px" viewBox="0 0 32 29" enable-background="new 0 0 32 29" xml:space="preserve">
<path fill="#E4E7E7" d="M25.305,0H6.697C2.647,2.903,0,7.638,0,13c0,8.837,7.164,16,16,16s16-7.163,16-16
	C32,7.638,29.354,2.903,25.305,0z"/>
<path fill="#26A6D1" d="M1.623,6C0.588,8.114,0,10.486,0,13c0,8.837,7.164,16,16,16s16-7.163,16-16c0-2.514-0.588-4.886-1.623-7
	H1.623z"/>
<path fill="#E8AB54" d="M20.678,21.434c1.311,0.762,2.741,0.737,3.195-0.055c0.453-0.791-0.24-2.051-1.551-2.812
	c-1.311-0.76-2.741-0.736-3.195,0.056C18.674,19.412,19.367,20.672,20.678,21.434z"/>
<path fill="#F6C37A" d="M20.678,15.566c1.311-0.762,2.741-0.737,3.195,0.055c0.453,0.791-0.24,2.051-1.551,2.812
	c-1.311,0.76-2.741,0.736-3.195-0.056C18.674,17.588,19.367,16.328,20.678,15.566z"/>
<path fill="#F6C37A" d="M14,15c3.314,0,6,1.566,6,3.5S17.314,22,14,22c-3.313,0-6-1.566-6-3.5S10.687,15,14,15z"/>
<path fill="#AA8046" d="M11,17c0.553,0,1,0.448,1,1c0,0.553-0.447,1-1,1s-1-0.447-1-1C10,17.448,10.447,17,11,17z"/>
<path fill="#EAECEC" d="M26.766,12.985h2.088v-1.012c0-3.993-2.986-7.302-6.912-7.965C24.789,5.883,26.766,9.739,26.766,12.985z"/>
<g>
	<g>
		<path fill="#79C8E3" d="M6.5,14C6.224,14,6,14.224,6,14.5C6,14.775,6.224,15,6.5,15S7,14.775,7,14.5C7,14.224,6.776,14,6.5,14z
			 M9,11c-0.553,0-1,0.448-1,1c0,0.553,0.447,1,1,1s1-0.447,1-1C10,11.448,9.553,11,9,11z M6,8C5.447,8,5,8.448,5,9
			c0,0.553,0.447,1,1,1s1-0.447,1-1C7,8.448,6.553,8,6,8z"/>
	</g>
</g>
<path fill="#7DCAE3" d="M28.854,12.985v-1.012c0-2.371-1.059-4.496-2.735-5.974h-2.025c1.638,2.002,2.675,4.647,2.675,6.985
	L28.854,12.985L28.854,12.985z"/>
<path fill="#2B81A0" d="M8.26,27c2.294,1.271,4.931,2,7.74,2c2.809,0,5.445-0.729,7.74-2H8.26z"/>
<path fill="#CDCFCF" d="M4,13C4,7.638,6.647,2.903,10.697,0h-4C2.647,2.903,0,7.638,0,13c0,8.837,7.164,16,16,16
	c0.68,0,1.344-0.057,2-0.139C10.11,27.876,4,21.158,4,13z"/>
<path fill="#2295BC" d="M18,28.861C10.11,27.876,4,21.158,4,13c0-2.514,0.588-4.886,1.623-7h-4c0,0.001-0.001,0.002-0.001,0.003
	C1.366,6.526,1.138,7.065,0.938,7.618C0.935,7.629,0.931,7.64,0.927,7.651c-0.195,0.543-0.36,1.101-0.496,1.67
	C0.425,9.348,0.42,9.375,0.414,9.402c-0.13,0.561-0.232,1.132-0.301,1.713c-0.003,0.031-0.005,0.062-0.009,0.094
	C0.038,11.797,0,12.394,0,13c0,8.837,7.164,16,16,16c0.425,0,0.842-0.031,1.258-0.062C17.507,28.914,17.755,28.893,18,28.861z"/>
<path fill="#277490" d="M18,28.861c-2.05-0.256-3.976-0.906-5.71-1.861H8.26c0.142,0.078,0.289,0.148,0.433,0.223
	c0.259,0.133,0.521,0.26,0.788,0.379c0.153,0.069,0.306,0.141,0.462,0.203c0.376,0.154,0.76,0.297,1.15,0.422
	c0.134,0.043,0.271,0.08,0.407,0.121c0.349,0.103,0.703,0.193,1.061,0.272c0.098,0.021,0.194,0.047,0.292,0.065
	c0.444,0.09,0.896,0.155,1.353,0.207c0.115,0.014,0.229,0.022,0.345,0.033C15.029,28.97,15.511,29,16,29
	c0.425,0,0.842-0.031,1.258-0.062C17.507,28.914,17.755,28.893,18,28.861z"/>
</svg>
