<?xml version="1.0" encoding="utf-8"?>
<!-- Generator: Adobe Illustrator 16.2.1, SVG Export Plug-In . SVG Version: 6.00 Build 0)  -->
<!DOCTYPE svg PUBLIC "-//W3C//DTD SVG 1.1//EN" "http://www.w3.org/Graphics/SVG/1.1/DTD/svg11.dtd">
<svg version="1.1" id="Слой_1" xmlns="http://www.w3.org/2000/svg" xmlns:xlink="http://www.w3.org/1999/xlink" x="0px" y="0px"
	 width="32px" height="32px" viewBox="0 0 32 32" enable-background="new 0 0 32 32" xml:space="preserve">
<g>
	<path fill="#B6B9B9" d="M7.03,28c-1.104,0-2,0.896-2,2s0.896,2,2,2s2-0.896,2-2S8.135,28,7.03,28z M25.03,28c-1.104,0-2,0.896-2,2
		s0.896,2,2,2s2-0.896,2-2S26.135,28,25.03,28z"/>
</g>
<path fill="#E4E7E7" d="M3.03,0h26c1.657,0,3,1.343,3,3v24c0,1.657-1.343,3-3,3h-26c-1.657,0-3-1.343-3-3V3
	C0.03,1.343,1.373,0,3.03,0z"/>
<path fill="#D8DBDB" d="M0.03,27c0,0.564,0.166,1.087,0.437,1.538l6.481-6.416V6.991L0.03,13.522V27z"/>
<path fill="#D8DBDB" d="M28.03,3c0.552,0,1,0.449,1,1v22c0,0.552-0.448,1-1,1h-24c-0.551,0-1-0.448-1-1V4c0-0.551,0.449-1,1-1H28.03
	 M28.03,2h-24c-1.104,0-2,0.896-2,2v22c0,1.104,0.896,2,2,2h24c1.104,0,2-0.896,2-2V4C30.03,2.896,29.135,2,28.03,2L28.03,2z"/>
<g>
	<path fill="#B0B2B2" d="M7.03,11c1.104,0,2-0.896,2-2s-0.896-2-2-2s-2,0.896-2,2S5.926,11,7.03,11z M7.03,19c-1.104,0-2,0.896-2,2
		s0.896,2,2,2s2-0.896,2-2S8.135,19,7.03,19z"/>
</g>
<path fill="#CDCFCF" d="M7.03,8c0.553,0,1,0.447,1,1v12c0,0.553-0.447,1-1,1s-1-0.447-1-1V9C6.03,8.447,6.478,8,7.03,8z"/>
<polygon fill="#CBA950" points="24.272,12.172 22.858,10.758 20.03,13.586 17.202,10.758 15.788,12.172 18.616,15 15.788,17.828 
	17.202,19.243 20.03,16.415 22.858,19.243 24.272,17.828 21.444,15 "/>
<g>
	<path fill="#E3BD59" d="M15.081,10.05c-2.734,2.734-2.734,7.166,0,9.9c2.734,2.733,7.166,2.733,9.9-0.001
		c2.733-2.733,2.733-7.165,0-9.899C22.246,7.316,17.814,7.316,15.081,10.05z M23.565,18.535c-1.952,1.953-5.118,1.953-7.071,0
		c-1.953-1.952-1.953-5.118,0-7.071c1.953-1.953,5.119-1.953,7.071,0C25.519,13.417,25.519,16.583,23.565,18.535z"/>
</g>
<path fill="#E3BD59" d="M20.03,13c1.104,0,2,0.896,2,2s-0.896,2-2,2s-2-0.896-2-2S18.926,13,20.03,13z"/>
<path fill="#CDD0D0" d="M3.03,26V10.69l-1,0.944V26c0,0.291,0.065,0.565,0.177,0.815L3.03,26L3.03,26z"/>
<path fill="#B8BABA" d="M7.03,21V9c0-0.366,0.207-0.673,0.5-0.847C7.381,8.064,7.217,8,7.03,8c-0.553,0-1,0.447-1,1v12
	c0,0.553,0.447,1,1,1c0.187,0,0.351-0.064,0.5-0.153C7.237,21.673,7.03,21.366,7.03,21z"/>
<g>
	<path fill="#CBA950" d="M23.884,18.146c0.13-0.106,0.269-0.197,0.389-0.318c1.953-1.953,1.953-5.118,0.001-7.071
		c-1.953-1.953-5.119-1.953-7.071,0c-0.121,0.121-0.212,0.259-0.318,0.389c1.964-1.604,4.851-1.514,6.682,0.318
		C25.397,13.296,25.488,16.182,23.884,18.146z"/>
	<path fill="#CBA950" d="M15.788,19.242c-2.614-2.614-2.722-6.777-0.335-9.527c-0.126,0.109-0.252,0.216-0.372,0.335
		c-2.734,2.734-2.734,7.166,0,9.9c2.734,2.733,7.166,2.733,9.9-0.001c0.119-0.119,0.226-0.245,0.335-0.371
		C22.566,21.965,18.402,21.857,15.788,19.242z"/>
</g>
</svg>
