<?xml version="1.0" encoding="utf-8"?>
<!-- Generator: Adobe Illustrator 16.2.1, SVG Export Plug-In . SVG Version: 6.00 Build 0)  -->
<!DOCTYPE svg PUBLIC "-//W3C//DTD SVG 1.1//EN" "http://www.w3.org/Graphics/SVG/1.1/DTD/svg11.dtd">
<svg version="1.1" id="Слой_1" xmlns="http://www.w3.org/2000/svg" xmlns:xlink="http://www.w3.org/1999/xlink" x="0px" y="0px"
	 width="32px" height="32px" viewBox="0 0 32 32" enable-background="new 0 0 32 32" xml:space="preserve">
<path fill="#D8DBDB" d="M0,12h32v10c0,5.523-4.477,10-10,10H10C4.477,32,0,27.523,0,22V12z"/>
<path fill="#C3C4C4" d="M30.5,12h-1v8c0,4.136-3.363,7.5-7.5,7.5H10c-4.136,0-7.5-3.364-7.5-7.5v-8h-1v8c0,4.688,3.813,8.5,8.5,8.5
	h12c4.688,0,8.5-3.812,8.5-8.5V12z"/>
<path fill="#2494BC" d="M10,0h12c5.523,0,10,4.477,10,10v2c0,5.523-4.477,10-10,10H10C4.477,22,0,17.523,0,12v-2
	C0,4.477,4.477,0,10,0z"/>
<path fill="#1E7FA1" d="M3.5,12v-2c0-5.523,4.477-10,10-10H10C4.477,0,0,4.477,0,10v2c0,5.523,4.477,10,10,10h3.5
	C7.977,22,3.5,17.523,3.5,12z"/>
<path fill="#E4E7E7" d="M22,5H10c-5.012,0-9.15,3.69-9.875,8.5C0.85,18.311,4.988,22,10,22h12c5.012,0,9.15-3.689,9.876-8.5
	C31.15,8.69,27.012,5,22,5z"/>
<path fill="#C2C5C5" d="M3.5,12v-2c0-1.024,0.155-2.011,0.441-2.941C1.932,8.599,0.52,10.881,0.125,13.5C0.85,18.311,4.988,22,10,22
	h3.5C7.977,22,3.5,17.523,3.5,12z"/>
<path fill="#BEC4C6" d="M15,5h2v17h-2V5z"/>
<path fill="#E4E7E7" d="M16,3c1.104,0,2,0.896,2,2s-0.896,2-2,2c-1.104,0-2-0.896-2-2S14.896,3,16,3z"/>
<path fill="#B7BABA" d="M16,7c-0.931,0-1.706-0.639-1.929-1.5C14.029,5.661,14,5.826,14,6c0,1.104,0.896,2,2,2c1.104,0,2-0.896,2-2
	c0-0.174-0.029-0.339-0.07-0.5C17.706,6.361,16.932,7,16,7z"/>
<path fill="#8B8F90" d="M15,7.723C15.295,7.895,15.634,8,16,8s0.705-0.105,1-0.277V6.726C16.706,6.898,16.366,7,16,7
	s-0.706-0.102-1-0.274V7.723z"/>
</svg>
