<?xml version="1.0" encoding="utf-8"?>
<!-- Generator: Adobe Illustrator 16.2.1, SVG Export Plug-In . SVG Version: 6.00 Build 0)  -->
<!DOCTYPE svg PUBLIC "-//W3C//DTD SVG 1.1//EN" "http://www.w3.org/Graphics/SVG/1.1/DTD/svg11.dtd">
<svg version="1.1" id="Слой_1" xmlns="http://www.w3.org/2000/svg" xmlns:xlink="http://www.w3.org/1999/xlink" x="0px" y="0px"
	 width="32px" height="32px" viewBox="0 0 32 32" enable-background="new 0 0 32 32" xml:space="preserve">
<path fill="#E4534F" d="M16,0c8.837,0,16,7.164,16,16s-7.163,16-16,16S0,24.836,0,16S7.163,0,16,0z"/>
<g>
	<g>
		<path fill="#EF9894" d="M25.452,11.946c0.841-0.507,0.655-2.363-0.415-4.146c-1.07-1.783-2.619-2.816-3.461-2.311
			c-0.841,0.508-0.655,2.363,0.415,4.146S24.611,12.453,25.452,11.946z M26.749,14.223c-0.17-0.635-0.82-1.012-1.453-0.842
			c-0.632,0.169-1.007,0.82-0.837,1.455s0.82,1.012,1.453,0.842C26.544,15.508,26.919,14.857,26.749,14.223z"/>
	</g>
</g>
<g>
	<g>
		<path fill="#98494A" d="M11.241,9.183c-0.717-0.419-1.635-0.17-2.049,0.556c-0.414,0.725-0.168,1.651,0.55,2.07
			c0.717,0.418,1.635,0.17,2.049-0.555C12.205,10.528,11.959,9.602,11.241,9.183z M17.253,9.203
			c-0.712-0.408-1.626-0.158-2.042,0.557c-0.415,0.717-0.176,1.628,0.536,2.036s1.625,0.159,2.041-0.557S17.964,9.611,17.253,9.203z
			 M14.258,14.194c-0.718-0.414-1.635-0.168-2.049,0.55c-0.414,0.717-0.169,1.635,0.549,2.049s1.635,0.168,2.049-0.549
			C15.222,15.526,14.976,14.609,14.258,14.194z"/>
	</g>
</g>
<path fill="#C24743" d="M3,16C3,7.67,9.367,0.833,17.5,0.076C17.006,0.03,16.507,0,16,0C7.163,0,0,7.164,0,16s7.163,16,16,16
	c0.507,0,1.006-0.029,1.5-0.076C9.367,31.167,3,24.33,3,16z"/>
</svg>
