<?xml version="1.0" encoding="utf-8"?>
<!-- Generator: Adobe Illustrator 16.2.1, SVG Export Plug-In . SVG Version: 6.00 Build 0)  -->
<!DOCTYPE svg PUBLIC "-//W3C//DTD SVG 1.1//EN" "http://www.w3.org/Graphics/SVG/1.1/DTD/svg11.dtd">
<svg version="1.1" id="Слой_1" xmlns="http://www.w3.org/2000/svg" xmlns:xlink="http://www.w3.org/1999/xlink" x="0px" y="0px"
	 width="32px" height="32px" viewBox="0 0 32 32" enable-background="new 0 0 32 32" xml:space="preserve">
<path fill="#F6BF72" d="M6,0h20c1.104,0,1.627,0.354,2,1l4,7H0l4-7C4.394,0.338,4.896,0,6,0z"/>
<path fill="#E8AB54" d="M32,8v22c0,1.104-0.896,2-2,2H2c-1.104,0-2-0.896-2-2V8H32z"/>
<path fill="#F0C890" d="M13,0h6l1,7.974V16l-1.977-1.531L15.995,16l-2.04-1.469L12,16V8.035L13,0z"/>
<path fill="#E4E7E7" d="M3,24h11v5H3V24z"/>
<g>
	<g>
		<path fill="#B6B9B9" d="M4,28h4v-1H4V28z M9,28h4v-1H9V28z M4,25v1h9v-1H4z"/>
	</g>
</g>
<polygon fill="#F9D5A3" points="20,8 20,7.974 19,0 13,0 12.004,8 "/>
</svg>
