<?xml version="1.0" encoding="utf-8"?>
<!-- Generator: Adobe Illustrator 16.2.1, SVG Export Plug-In . SVG Version: 6.00 Build 0)  -->
<!DOCTYPE svg PUBLIC "-//W3C//DTD SVG 1.1//EN" "http://www.w3.org/Graphics/SVG/1.1/DTD/svg11.dtd">
<svg version="1.1" id="Слой_1" xmlns="http://www.w3.org/2000/svg" xmlns:xlink="http://www.w3.org/1999/xlink" x="0px" y="0px"
	 width="32px" height="32px" viewBox="0 0 32 32" enable-background="new 0 0 32 32" xml:space="preserve">
<path fill="#EFC75E" d="M16,0c0,0,3,3.238,3,6s-1.343,4-3,4s-3-1.238-3-4S16,0,16,0z"/>
<path fill="#E6AB54" d="M16,4c0,0,1,1.296,1,2.4S16.553,10,16,10s-1-2.495-1-3.6S16,4,16,4z"/>
<g>
	<g>
		<path fill="#E4E7E7" d="M16,11c-1.104,0-2.104-0.5-2.828-1H12v16h8V10h-1.172C18.104,10.5,17.104,11,16,11z"/>
	</g>
</g>
<path fill="#349886" d="M4.938,20.5c0,0,5.927-1.197,9.275,0.736c3.348,1.933,3.954,4.351,2.85,6.264s-3.502,2.597-6.85,0.664
	C6.864,26.231,4.938,20.5,4.938,20.5z"/>
<path fill="#3DB39E" d="M2,23.245c0,0,4.225-0.782,6.611,0.48c2.388,1.263,2.819,2.841,2.032,4.091
	c-0.788,1.249-2.496,1.696-4.884,0.434C3.374,26.987,2,23.245,2,23.245z"/>
<path fill="#3DB39E" d="M26.909,20.369c0,0-6.06-1.179-9.483,0.725s-4.044,4.284-2.914,6.168c1.129,1.884,3.58,2.557,7.004,0.653
	S26.909,20.369,26.909,20.369z"/>
<path fill="#349886" d="M30,23.235c0,0-4.216-0.783-6.598,0.481s-2.812,2.846-2.027,4.098c0.786,1.252,2.491,1.699,4.873,0.435
	C28.629,26.984,30,23.235,30,23.235z"/>
<path fill="#F1CF76" d="M16,26h16c0,0-2.161,6-16,6C1.931,32,0,26,0,26H16z"/>
<path fill="#CDB065" d="M5,26H0c0,0,1.931,6,16,6c0.873,0,1.698-0.024,2.48-0.068C6.695,31.267,5,26,5,26z"/>
</svg>
