<?xml version="1.0" encoding="utf-8"?>
<!-- Generator: Adobe Illustrator 16.2.1, SVG Export Plug-In . SVG Version: 6.00 Build 0)  -->
<!DOCTYPE svg PUBLIC "-//W3C//DTD SVG 1.1//EN" "http://www.w3.org/Graphics/SVG/1.1/DTD/svg11.dtd">
<svg version="1.1" id="Слой_1" xmlns="http://www.w3.org/2000/svg" xmlns:xlink="http://www.w3.org/1999/xlink" x="0px" y="0px"
	 width="32px" height="30px" viewBox="0 0 32 30" enable-background="new 0 0 32 30" xml:space="preserve">
<path fill="#EFC75E" d="M0,15l1-1l29-7h2l-2,16L0,30V15z"/>
<path fill="#BB8341" d="M14.5,19.268c1.195-0.689,2.613-0.474,3.165,0.482c0.552,0.957,0.03,2.292-1.165,2.982
	c-1.195,0.689-2.613,0.475-3.165-0.482C12.783,21.293,13.305,19.958,14.5,19.268z"/>
<path fill="#BB8341" d="M22.869,14.185c0.754-0.324,1.648-0.223,1.998,0.228c0.35,0.45,0.02,1.078-0.735,1.403
	c-0.755,0.324-1.649,0.223-1.999-0.229C21.783,15.138,22.113,14.51,22.869,14.185z"/>
<path fill="#BB8341" d="M6.388,18.117c-0.663-0.221-1.259-0.133-1.329,0.195c-0.072,0.328-0.209,1.41,0.455,1.629
	C6.176,20.162,7.929,19.655,8,19.327S7.051,18.337,6.388,18.117z"/>
<path fill="#F2D27E" d="M14,0l18,7L0,15L14,0z"/>
<path fill="#D0A15D" d="M16.241,6.034c1.333-0.357,2.53-0.215,2.674,0.318C19.059,6.887,19.334,8.643,18,9s-3.857-0.467-4-1
	S14.908,6.392,16.241,6.034z"/>
<path fill="#BB8341" d="M25.5,22c-1.381,0-2.5,0.896-2.5,2c0,0.212,0.053,0.412,0.129,0.604l4.778-1.114
	C27.623,22.633,26.658,22,25.5,22z"/>
<path fill="#AF7E3E" d="M6.059,19.312c0.07-0.328,0.666-0.416,1.329-0.195c0.176,0.059,0.377,0.148,0.577,0.256
	C7.974,19.357,7.997,19.342,8,19.327c0.071-0.328-0.949-0.99-1.612-1.21c-0.663-0.221-1.259-0.133-1.329,0.195
	c-0.072,0.328-0.209,1.41,0.455,1.629C5.64,19.984,5.813,19.993,6,19.988C5.991,19.711,6.029,19.448,6.059,19.312z"/>
<path fill="#AF7E3E" d="M15.5,20.268c0.763-0.439,1.615-0.508,2.275-0.252c-0.031-0.091-0.062-0.182-0.11-0.266
	c-0.552-0.956-1.97-1.173-3.165-0.482c-1.195,0.691-1.717,2.025-1.165,2.982c0.2,0.346,0.515,0.592,0.889,0.736
	C13.891,22.061,14.41,20.896,15.5,20.268z"/>
<path fill="#AF7E3E" d="M26.5,23c0.493,0,0.945,0.12,1.331,0.316C27.48,22.552,26.578,22,25.5,22c-1.381,0-2.5,0.896-2.5,2
	c0,0.212,0.053,0.412,0.129,0.604l1.012-0.235C24.473,23.575,25.396,23,26.5,23z"/>
<path fill="#AF7E3E" d="M23.869,15.185c0.361-0.155,0.752-0.207,1.104-0.176c0.062-0.207,0.035-0.416-0.104-0.597
	c-0.349-0.45-1.244-0.552-1.998-0.228c-0.757,0.325-1.086,0.953-0.736,1.403c0.183,0.235,0.515,0.369,0.896,0.403
	C23.121,15.684,23.417,15.379,23.869,15.185z"/>
<path fill="#C39757" d="M14.266,8.281c0.381-0.489,1.117-1.016,1.976-1.247c1.333-0.357,2.529-0.215,2.674,0.318
	C18.943,7.456,18.975,7.616,19,7.794c0.096-0.566-0.012-1.167-0.084-1.442c-0.145-0.533-1.341-0.676-2.674-0.318
	C14.909,6.392,13.857,7.467,14,8C14.023,8.088,14.129,8.184,14.266,8.281z"/>
</svg>
