<?xml version="1.0" encoding="utf-8"?>
<!-- Generator: Adobe Illustrator 16.2.1, SVG Export Plug-In . SVG Version: 6.00 Build 0)  -->
<!DOCTYPE svg PUBLIC "-//W3C//DTD SVG 1.1//EN" "http://www.w3.org/Graphics/SVG/1.1/DTD/svg11.dtd">
<svg version="1.1" id="Слой_1" xmlns="http://www.w3.org/2000/svg" xmlns:xlink="http://www.w3.org/1999/xlink" x="0px" y="0px"
	 width="32px" height="32px" viewBox="0 0 32 32" enable-background="new 0 0 32 32" xml:space="preserve">
<g>
	<path fill="#88342E" d="M27.322,13.631c-6.254,3.119-16.392,3.119-22.646,0c-3.005-1.5-4.551-3.447-4.667-5.412v15.8
		c0.007,2.043,1.567,4.084,4.688,5.643c6.251,3.125,16.388,3.125,22.64,0C30.6,28.033,32.143,25.875,32,23.74V8.115
		C31.934,10.115,30.383,12.105,27.322,13.631z"/>
</g>
<path fill="#E2574C" d="M4.676,2.334c6.254-3.12,16.392-3.12,22.646,0c6.254,3.119,6.254,8.177,0,11.297
	c-6.254,3.119-16.392,3.119-22.646,0C-1.577,10.511-1.577,5.454,4.676,2.334z"/>
<path fill="#E4E7E7" d="M29.215,3.479c-0.553-0.402-1.176-0.788-1.893-1.145c-0.344-0.172-0.705-0.331-1.072-0.483L18.012,6.44
	V0.065c-1.328-0.083-2.67-0.084-4-0.002v6.173L5.19,2.103C5.02,2.181,4.841,2.252,4.676,2.334C3.641,2.851,2.793,3.424,2.101,4.03
	l6.912,2.965H0.124c-0.166,0.667-0.162,1.342,0.01,2.009l10.759,0.01l-7.096,4.133c0.281,0.165,0.566,0.329,0.879,0.485
	c0.845,0.421,1.766,0.781,2.733,1.088l6.603-4.145v5.327c1.329,0.083,2.671,0.082,4-0.002v-4.637l6.553,3.465
	c0.977-0.31,1.906-0.671,2.758-1.096c0.328-0.164,0.629-0.335,0.922-0.509L19.74,9.013l12.125-0.01
	c0.172-0.666,0.176-1.339,0.012-2.005L23.131,7L29.215,3.479z"/>
<path fill="#F7F8F8" d="M8.951,4.421c3.903-1.955,10.231-1.955,14.135,0c3.902,1.955,3.902,5.125,0,7.08
	c-3.904,1.955-10.232,1.955-14.135,0S5.047,6.376,8.951,4.421z"/>
<path fill="#E2574C" d="M16.645,4.994c-2.382,0-3.042,0.85-3.138,1.747c-1.795,0.047-3.496,0.367-3.496,1.566
	c0,0.936,1.498,1.689,3.369,1.684c6.281-0.166,6.275-0.168,6.275-0.168s0.014,0.002,0.359-3.146
	C20.023,5.742,18.516,4.994,16.645,4.994z"/>
<g>
	<path fill="#898B8B" d="M28.262,13.114c-0.297,0.177-0.605,0.351-0.939,0.518c-0.844,0.421-1.764,0.781-2.732,1.088v16.035h0.008
		c0.971-0.309,1.893-0.67,2.74-1.093c0.33-0.165,0.629-0.339,0.924-0.514V13.114z"/>
	<path fill="#898B8B" d="M3.793,13.146v16.017c0.289,0.171,0.583,0.34,0.904,0.5c0.841,0.421,1.757,0.78,2.721,1.087V14.723
		c-0.971-0.308-1.895-0.668-2.742-1.091C4.363,13.475,4.075,13.311,3.793,13.146z"/>
	<path fill="#898B8B" d="M16.508,31.994c0.504-0.008,1.004-0.027,1.504-0.059V15.899c-1.328,0.083-2.67,0.084-4,0.002v16.034
		c0.503,0.031,1.008,0.051,1.515,0.059H16.508z"/>
</g>
<path fill="#7A3029" d="M0.012,8.239v15.81c0.014,1.32,0.687,2.637,2,3.823V11.863C0.76,10.737,0.092,9.492,0.012,8.239z"/>
</svg>
