<?xml version="1.0" encoding="utf-8"?>
<!-- Generator: Adobe Illustrator 16.2.1, SVG Export Plug-In . SVG Version: 6.00 Build 0)  -->
<!DOCTYPE svg PUBLIC "-//W3C//DTD SVG 1.1//EN" "http://www.w3.org/Graphics/SVG/1.1/DTD/svg11.dtd">
<svg version="1.1" id="Слой_1" xmlns="http://www.w3.org/2000/svg" xmlns:xlink="http://www.w3.org/1999/xlink" x="0px" y="0px"
	 width="26px" height="32px" viewBox="0 0 26 32" enable-background="new 0 0 26 32" xml:space="preserve">
<g>
	<g>
		<path fill="#AE5F59" d="M13.001,0c-1.103,0-1.996,0.897-1.996,2.004c0,1.107,0.894,2.005,1.996,2.005
			c1.102,0,1.995-0.896,1.995-2.005C14.996,0.897,14.104,0,13.001,0z M13.001,3.207c-0.661,0-1.198-0.538-1.198-1.203
			c0-0.664,0.537-1.202,1.198-1.202s1.198,0.538,1.198,1.202C14.199,2.669,13.662,3.207,13.001,3.207z"/>
	</g>
</g>
<path fill="#E2574C" d="M12.001,3h2c1.104,0,2,0.896,2,2v3h-6V5C10.001,3.895,10.896,3,12.001,3z"/>
<path fill="#CC6155" d="M13.001,6c7.18,0,13,5.82,13,13s-5.82,13-13,13c-7.18,0-13-5.82-13-13S5.821,6,13.001,6z"/>
<g>
	<g>
		<path fill="#E7E9E9" d="M18.501,18c-0.828,0-1.5,0.672-1.5,1.5s0.672,1.5,1.5,1.5c0.827,0,1.5-0.672,1.5-1.5S19.328,18,18.501,18z
			 M7.501,21c-0.828,0-1.5,0.672-1.5,1.5s0.672,1.5,1.5,1.5c0.828,0,1.5-0.672,1.5-1.5S8.329,21,7.501,21z M14.501,25
			c-0.828,0-1.5,0.672-1.5,1.5s0.672,1.5,1.5,1.5c0.827,0,1.5-0.672,1.5-1.5S15.328,25,14.501,25z"/>
	</g>
</g>
<path fill="#E9ECEC" d="M0.758,14.662C2.152,15.798,5.321,18,8.965,18c2.59,0,6.417-4,9.011-4c3.349,0,6.302,1.838,7.859,3.021
	C24.88,10.784,19.507,6,13.001,6C7.345,6,2.546,9.619,0.758,14.662z"/>
<path fill="#B7584C" d="M16.492,30c-7.181,0-13-5.82-13-13c0-4.098,1.9-7.747,4.862-10.13C3.472,8.742,0,13.46,0,19
	c0,7.18,5.82,13,13,13c3.082,0,5.908-1.078,8.138-2.87C19.693,29.684,18.132,30,16.492,30z"/>
<path fill="#D1D1D1" d="M8.354,6.87C7.745,7.103,7.158,7.382,6.597,7.7C6.595,7.701,6.594,7.702,6.592,7.703
	c-0.26,0.148-0.513,0.306-0.762,0.47C5.795,8.196,5.759,8.22,5.725,8.243C5.512,8.387,5.306,8.539,5.103,8.694
	c-0.07,0.054-0.14,0.107-0.209,0.163C4.73,8.987,4.571,9.123,4.415,9.261C4.31,9.353,4.207,9.447,4.105,9.542
	c-0.116,0.108-0.229,0.22-0.34,0.333c-0.135,0.137-0.268,0.275-0.396,0.418c-0.073,0.08-0.144,0.161-0.215,0.243
	c-0.159,0.186-0.314,0.375-0.462,0.568c-0.036,0.047-0.072,0.094-0.107,0.142c-0.175,0.235-0.344,0.476-0.503,0.723
	c-0.008,0.012-0.016,0.024-0.023,0.037c-0.528,0.827-0.966,1.716-1.299,2.656c0.611,0.499,1.579,1.198,2.763,1.83
	C3.673,12.603,5.516,9.153,8.354,6.87z"/>
</svg>
