<?xml version="1.0" encoding="utf-8"?>
<!-- Generator: Adobe Illustrator 16.2.1, SVG Export Plug-In . SVG Version: 6.00 Build 0)  -->
<!DOCTYPE svg PUBLIC "-//W3C//DTD SVG 1.1//EN" "http://www.w3.org/Graphics/SVG/1.1/DTD/svg11.dtd">
<svg version="1.1" id="Слой_1" xmlns="http://www.w3.org/2000/svg" xmlns:xlink="http://www.w3.org/1999/xlink" x="0px" y="0px"
	 width="32px" height="32px" viewBox="0 0 32 32" enable-background="new 0 0 32 32" xml:space="preserve">
<path fill="#0B0B0A" d="M16,0c8.837,0,16,7.163,16,16c0,8.836-7.163,15.999-16,15.999S0,24.836,0,16C0,7.163,7.163,0,16,0z"/>
<g>
	<g>
		<path fill="#FFFFFF" d="M9.5,13h-3v6h5v-9h-2V13z M9.5,17h-1v-2h1V17z M12.5,19h2v-6h-2V19z M12.5,12h2v-2h-2V12z M15.5,19h3v1h-3
			v2h5v-9h-5V19z M17.5,15h1v2h-1V15z M21.5,13v6h3v1h-3v2h5v-9H21.5z M24.5,17h-1v-2h1V17z"/>
	</g>
</g>
</svg>
