<?xml version="1.0" encoding="utf-8"?>
<!-- Generator: Adobe Illustrator 16.2.1, SVG Export Plug-In . SVG Version: 6.00 Build 0)  -->
<!DOCTYPE svg PUBLIC "-//W3C//DTD SVG 1.1//EN" "http://www.w3.org/Graphics/SVG/1.1/DTD/svg11.dtd">
<svg version="1.1" id="Слой_1" xmlns="http://www.w3.org/2000/svg" xmlns:xlink="http://www.w3.org/1999/xlink" x="0px" y="0px"
	 width="29.023px" height="31.988px" viewBox="0 0 29.023 31.988" enable-background="new 0 0 29.023 31.988" xml:space="preserve">
<g>
	<g>
		<path fill="#0C76AB" d="M21.735,5.949c-1.692-1.018-3.296-1.416-4.893-2.437c-0.99-0.646-2.364-2.188-3.517-3.514
			c-0.223,2.129-0.896,2.993-1.662,3.608C10.038,4.84,9.016,5.209,7.603,5.949C6.423,6.535,0,10.232,0,18.185
			c0,7.949,6.936,13.803,14.639,13.803c7.706,0,14.387-5.393,14.385-13.561C29.024,10.26,22.757,6.565,21.735,5.949z M23.876,23.967
			c-1.121-0.086-3.692-2.922-5.161-2.986c-1.854-0.057-6.341,2.982-9.372,2.982c-1.835,0-2.383-0.264-2.996-0.646
			c-0.917-0.617-1.374-1.559-1.346-2.857c0.033-2.297,2.261-4.443,5.076-4.473c3.573-0.031,6.684,3.948,8.571,3.92
			c1.603-0.029,4.919-2.928,6.384-2.928c1.554,0,1.989,1.445,1.989,2.311s-0.312,2.422-1.06,3.396S24.751,24.023,23.876,23.967z"/>
	</g>
</g>
</svg>
