<?xml version="1.0" encoding="utf-8"?>
<!-- Generator: Adobe Illustrator 16.2.1, SVG Export Plug-In . SVG Version: 6.00 Build 0)  -->
<!DOCTYPE svg PUBLIC "-//W3C//DTD SVG 1.1//EN" "http://www.w3.org/Graphics/SVG/1.1/DTD/svg11.dtd">
<svg version="1.1" id="Слой_1" xmlns="http://www.w3.org/2000/svg" xmlns:xlink="http://www.w3.org/1999/xlink" x="0px" y="0px"
	 width="31.982px" height="31.922px" viewBox="0 0 31.982 31.922" enable-background="new 0 0 31.982 31.922" xml:space="preserve">
<path fill="#E2574C" d="M0.539,5.929c0.556-0.916,1.785-1.23,2.746-0.701l6.706,4.791l-1.017,3.979L2.01,11.166
	C0.088,10.106-0.571,7.762,0.539,5.929z"/>
<path fill="#8B362E" d="M3.011,10.165c-1.847-1.017-2.51-3.216-1.577-5.013c-0.361,0.16-0.68,0.422-0.895,0.776
	c-1.11,1.833-0.451,4.178,1.472,5.236l6.965,2.832l0.325-1.274L3.011,10.165z"/>
<path fill="#FDEC7F" d="M12.483-0.007c4.143,0,7.5,3.357,7.5,7.5c0,4.143-3.357,7.5-7.5,7.5c-4.144,0-7.5-3.357-7.5-7.5
	C4.983,3.35,8.34-0.007,12.483-0.007z"/>
<path fill="#655E2F" d="M9.983,3.993c1.104,0,2,0.896,2,2s-0.896,2-2,2c-1.104,0-2-0.896-2-2S8.878,3.993,9.983,3.993z"/>
<path fill="#FDEB75" d="M29.983,13.978c-2.149,0-5.991,1.311-9.661,3.196c-3.018-2.938-6.646-5.188-9.339-5.188
	c-5.522,0-10,4.459-10,9.959s4.478,9.959,10,9.959c2.348,0,10.795,0,12,0c4.971,0,9-4.013,9-8.963S31.983,13.978,29.983,13.978z"/>
<path fill="#FDEF90" d="M10.983,11.993c-5.515,0-9.985,4.465-9.999,9.976c0.014,5.488,4.484,9.936,9.999,9.936
	c2.348,0,5.405,0.09,8.15-0.224c0.139,0.017,0.276,0.021,0.415,0.036c3.528-0.467,6.435-1.668,6.435-4.725
	C25.983,21.471,16.505,11.993,10.983,11.993z"/>
<path fill="#E3D36A" d="M23.983,30.904c-1.205,0-9.652,0-12,0c-5.522,0-10-4.459-10-9.959c0-2.483,0.92-4.752,2.431-6.497
	c-2.099,1.826-3.431,4.503-3.431,7.497c0,5.5,4.478,9.959,10,9.959c2.348,0,10.795,0,12,0c2.752,0,5.211-1.231,6.86-3.17
	C28.268,30.084,26.223,30.904,23.983,30.904z"/>
<path fill="#CB5A30" d="M19.526,16.451c2.572,2.84,4.457,6.083,4.457,8.542c0,5.522-9.479,5-15,5c-2.202,0-4.228-0.724-5.88-1.929
	c1.831,2.333,4.676,3.84,7.88,3.84c2.348,0,7.947-0.015,8.087,0c3.527-0.467,6.913-1.854,6.913-4.911
	C25.983,23.931,23.065,19.655,19.526,16.451z"/>
<path fill="#B6512B" d="M11.983,30.904c-1.57,0-3.051-0.37-4.373-1.013c-1.668-0.232-3.204-0.877-4.506-1.826
	c0.001,0.001,0.003,0.003,0.004,0.004c0.683,0.869,1.506,1.622,2.436,2.227c0.019,0.013,0.038,0.022,0.057,0.035
	c0.273,0.174,0.558,0.334,0.849,0.482c0.073,0.038,0.149,0.072,0.225,0.107c0.241,0.115,0.486,0.222,0.737,0.316
	c0.102,0.039,0.205,0.077,0.309,0.112c0.234,0.081,0.474,0.151,0.715,0.215c0.116,0.03,0.23,0.062,0.349,0.089
	c0.249,0.057,0.503,0.098,0.759,0.135c0.11,0.017,0.217,0.039,0.329,0.051c0.366,0.041,0.736,0.064,1.113,0.064
	c2.348,0,7.947-0.015,8.087,0c1.363-0.181,2.704-0.501,3.838-1C20.247,30.904,13.959,30.904,11.983,30.904z"/>
</svg>
