<?xml version="1.0" encoding="utf-8"?>
<!-- Generator: Adobe Illustrator 16.2.1, SVG Export Plug-In . SVG Version: 6.00 Build 0)  -->
<!DOCTYPE svg PUBLIC "-//W3C//DTD SVG 1.1//EN" "http://www.w3.org/Graphics/SVG/1.1/DTD/svg11.dtd">
<svg version="1.1" id="Слой_1" xmlns="http://www.w3.org/2000/svg" xmlns:xlink="http://www.w3.org/1999/xlink" x="0px" y="0px"
	 width="32px" height="32px" viewBox="0 0 32 32" enable-background="new 0 0 32 32" xml:space="preserve">
<path fill="#82B540" d="M16,0c8.837,0,16,7.163,16,16c0,8.836-7.163,15.999-16,15.999S0,24.836,0,16C0,7.163,7.163,0,16,0z"/>
<path fill="#FFFFFF" d="M22.12,7.1c-2.473-0.697-6.208,2.197-4.967,1.224c-2.737,2.147-4.899,5.188-5.067,9.762
	c-0.035,0.123-0.353-0.017-0.415-0.056c-0.87-1.647-1.215-3.383-0.488-5.887c0.135-0.224-0.308-0.498-0.387-0.419
	c-0.159,0.157-0.824,0.857-1.266,1.614c-2.188,3.752-0.757,8.561,3.07,10.664c3.826,2.107,8.658,0.748,10.788-3.036
	C25.854,16.598,23.713,7.554,22.12,7.1z"/>
</svg>
