<?xml version="1.0" encoding="utf-8"?>
<!-- Generator: Adobe Illustrator 16.2.1, SVG Export Plug-In . SVG Version: 6.00 Build 0)  -->
<!DOCTYPE svg PUBLIC "-//W3C//DTD SVG 1.1//EN" "http://www.w3.org/Graphics/SVG/1.1/DTD/svg11.dtd">
<svg version="1.1" id="Слой_1" xmlns="http://www.w3.org/2000/svg" xmlns:xlink="http://www.w3.org/1999/xlink" x="0px" y="0px"
	 width="25.986px" height="32.027px" viewBox="0 0 25.986 32.027" enable-background="new 0 0 25.986 32.027" xml:space="preserve">
<g>
	<g>
		<path fill="#5BA525" d="M5.786,5.82l0.122-0.121V5.668L5.906,5.576C5.904,5.495,5.904,5.38,5.901,5.24
			C5.899,4.962,5.893,4.579,5.89,4.173C5.877,3.356,5.868,2.444,5.868,2.044V2.031c0-0.37,0.043-0.717,0.122-1.036L1.007,6.013
			C1.448,5.89,1.945,5.82,2.494,5.82H5.786z M25.263,5.467c-0.224-1.223-0.91-1.793-1.529-2.027
			c-0.697-0.263-2.174-0.541-4.023-0.766c-0.974-0.118-2.065-0.154-3.002-0.154c-0.483,0-0.924,0.011-1.285,0.021l-0.176,0.008
			l-0.024-0.18c-0.111-0.824-0.7-1.6-1.306-1.845c-0.963-0.398-2.119-0.532-3.197-0.532c-0.881,0-1.63,0.092-1.922,0.178
			C8.255,0.323,7.654,0.65,7.34,1.118C7.128,1.434,6.987,1.831,6.984,2.425c0,0.349,0.011,1.18,0.018,1.923
			C7.01,5.089,7.023,5.747,7.023,5.759C7.021,6.531,6.288,7.032,5.534,7.036H2.575c-0.606,0-1.061,0.104-1.403,0.263
			C0.836,7.454,0.605,7.662,0.423,7.912C0.075,8.395,0,9.127,0,9.793v0.033c0,0,0.002,0.131,0.021,0.403
			c0.017,0.271,0.051,0.679,0.114,1.22c0.059,0.416,0.304,2.096,0.646,3.882c0.337,1.792,0.772,3.712,1.177,4.562
			c0.331,0.686,0.484,0.896,1.089,1.194c1.389,0.613,4.662,1.319,6.171,1.514c0.722,0.097,1.308,0.236,1.757,0.234
			c0.257,0,0.46-0.041,0.633-0.147c0.166-0.104,0.323-0.275,0.464-0.578c0.01-0.023,0.115-0.313,0.262-0.733
			c0.485-1.518,0.554-2.861,0.554-3.848c0-0.076,0.031-0.157,0.089-0.206l0.182-0.071l0.184,0.072l0.083,0.205
			c0,0.09-0.003,0.204-0.003,0.337c0,0.47,0.027,1.184,0.239,1.833c0.216,0.65,0.599,1.221,1.326,1.488
			c0.679,0.249,2.174,0.486,3.682,0.669c0.698,0.079,1.374,0.276,1.836,0.954c0.458,0.672,0.7,1.754,0.705,3.582
			c-0.005,0.556-0.025,1-0.11,1.364s-0.234,0.657-0.479,0.865c-0.491,0.412-1.229,0.466-2.409,0.471h-0.335
			c-0.623-0.002-1.104-0.003-1.498-0.095c-0.387-0.087-0.701-0.304-0.851-0.683c-0.103-0.248-0.141-0.549-0.141-0.932
			c-0.012-0.571,0.255-0.962,0.62-1.135c0.362-0.176,0.79-0.191,1.191-0.197c0.171,0,0.338,0.007,0.489,0.007h0.01
			c-0.004-0.057-0.021-0.146-0.043-0.276c-0.023-0.158-0.053-0.359-0.053-0.606c0-0.287,0.061-0.534,0.115-0.725
			c0.04-0.13,0.073-0.237,0.092-0.301c-0.349-0.011-0.685-0.02-0.998-0.02c-1.232-0.002-2.164,0.126-2.764,0.63
			c-0.595,0.499-0.947,1.427-0.948,3.17c0,0.891,0.083,1.591,0.267,2.13c0.188,0.537,0.465,0.918,0.871,1.207
			c0.812,0.573,2.218,0.756,4.412,0.752c1.725,0.002,2.854-0.039,3.696-0.596c0.842-0.552,1.496-1.664,2.203-3.926
			c0.275-0.879,0.955-3.607,1.369-8.188c0.047-0.541,0.072-1.303,0.07-2.188C25.986,13.341,25.585,7.23,25.263,5.467z
			 M21.695,15.877c-0.602-0.272-1.35-0.452-2.172-0.481c-0.076-0.002-0.161-0.005-0.237-0.005c-0.353,0-0.688,0.029-1.009,0.083
			L18,15.519l0.037-0.283c0.059-0.479,0.182-1.023,0.479-1.466c0.293-0.447,0.785-0.778,1.486-0.775h0.088
			c0.812,0.024,1.329,0.468,1.586,1.01c0.261,0.539,0.312,1.172,0.312,1.678l0.002,0.331L21.695,15.877z"/>
	</g>
</g>
</svg>
