<?xml version="1.0" encoding="utf-8"?>
<!-- Generator: Adobe Illustrator 16.2.1, SVG Export Plug-In . SVG Version: 6.00 Build 0)  -->
<!DOCTYPE svg PUBLIC "-//W3C//DTD SVG 1.1//EN" "http://www.w3.org/Graphics/SVG/1.1/DTD/svg11.dtd">
<svg version="1.1" id="Слой_1" xmlns="http://www.w3.org/2000/svg" xmlns:xlink="http://www.w3.org/1999/xlink" x="0px" y="0px"
	 width="32px" height="32px" viewBox="0 0 32 32" enable-background="new 0 0 32 32" xml:space="preserve">
<path fill="#45A5E3" d="M16,0c8.837,0,16,7.163,16,16c0,8.836-7.163,15.999-16,15.999S0,24.836,0,16C0,7.163,7.163,0,16,0z"/>
<g>
	<g>
		<path fill="#FFFFFF" d="M17.5,7h-2c-2.209,0-4,1.791-4,4v8c0,1.104,0.896,2,2,2h2v3c0,0.553,0.447,1,1,1s1-0.447,1-1v-3h2
			c1.104,0,2-0.896,2-2v-8C21.5,8.791,19.709,7,17.5,7z"/>
	</g>
</g>
</svg>
