<?xml version="1.0" encoding="utf-8"?>
<!-- Generator: Adobe Illustrator 16.2.1, SVG Export Plug-In . SVG Version: 6.00 Build 0)  -->
<!DOCTYPE svg PUBLIC "-//W3C//DTD SVG 1.1//EN" "http://www.w3.org/Graphics/SVG/1.1/DTD/svg11.dtd">
<svg version="1.1" id="Слой_1" xmlns="http://www.w3.org/2000/svg" xmlns:xlink="http://www.w3.org/1999/xlink" x="0px" y="0px"
	 width="31.967px" height="27.333px" viewBox="0 0 31.967 27.333" enable-background="new 0 0 31.967 27.333" xml:space="preserve">
<path fill="#25A0CA" d="M20.657,11.259l-4.029-4.187c-1.105-1.105-2.82-1.105-3.926,0l-0.948,0.754
	c-1.24-0.966-2.755-1.565-4.442-1.565C3.274,6.262,0,9.56,0,13.614c0,4.053,3.29,7.351,7.328,7.351c0.314,0,0.616-0.055,0.92-0.094
	l6.558,6.462l17.161-15.568V0L20.657,11.259z M7.588,19.262c-0.029,0-0.055,0.008-0.083,0.008c-3.031,0-5.653-2.623-5.653-5.656
	c0-3.034,2.622-5.346,5.653-5.346c1.181,0,2.271,0.384,3.168,1.022C12.076,10.287,13,11.919,13,13.768
	C12.999,16.774,10.579,19.216,7.588,19.262z M30.001,11.353L15.002,24.887l-4.837-4.423c1.339-0.61,2.477-1.62,3.228-2.874
	l1.887,1.982L30.001,4.42V11.353z"/>
</svg>
