<?xml version="1.0" encoding="utf-8"?>
<!-- Generator: Adobe Illustrator 16.2.1, SVG Export Plug-In . SVG Version: 6.00 Build 0)  -->
<!DOCTYPE svg PUBLIC "-//W3C//DTD SVG 1.1//EN" "http://www.w3.org/Graphics/SVG/1.1/DTD/svg11.dtd">
<svg version="1.1" id="Слой_1" xmlns="http://www.w3.org/2000/svg" xmlns:xlink="http://www.w3.org/1999/xlink" x="0px" y="0px"
	 width="26px" height="32px" viewBox="0 0 26 32" enable-background="new 0 0 26 32" xml:space="preserve">
<path fill="#CB4E44" d="M6,22h16v7c0,1.656-1.344,3-3,3H9c-1.657,0-3-1.344-3-3V22z"/>
<path fill="#AA4B44" d="M18,24.75h1V32h-1V24.75z"/>
<path fill="#B6463D" d="M22,22c0,0,0,1.895,0,3c0,1.104-3.582,2-8,2s-8-0.896-8-2c0-0.797,0-3,0-3H22z"/>
<path fill="#E2574C" d="M8,0h12c3.312,0,6,2.687,6,6v13c0,3.313-2.688,6-6,6H8c-0.583,0-1.734,0-1.734,0S2,21.731,2,19V6
	C2,2.686,4.687,0,8,0z"/>
<path fill="#CC4E45" d="M8,13c1.104,0,2,1.791,2,4c0,2.209-0.896,4-2,4s-2-1.791-2-4C6,14.791,6.896,13,8,13z"/>
<path fill="#BF392C" d="M14,19c-1.104,0-2,0.895-2,2v4h4v-4C16,19.895,15.104,19,14,19z"/>
<path fill="#A93528" d="M14,19c-1.104,0-2,0.895-2,2v1c0-1.105,0.896-2,2-2s2,0.895,2,2v-1C16,19.895,15.104,19,14,19z"/>
<path fill="#99433D" d="M18,25v1.729c0.352-0.052,0.686-0.106,1-0.171v-1.561h-1V25z"/>
<path fill="#CB4E44" d="M20,0H8C4.688,0,2,2.686,2,6v1c0,3.313,2.688,6,6,6h12c3.312,0,6-2.687,6-6V6C26,2.687,23.312,0,20,0z"/>
<path fill="#A23E36" d="M20,12h-9c-3.312,0-6-2.687-6-6V4c0-1.434,0.521-2.736,1.362-3.768C3.846,0.945,2,3.254,2,6v1
	c0,3.313,2.688,6,6,6h12c0.275,0,0.545-0.025,0.811-0.061c0.066-0.009,0.133-0.019,0.198-0.03c0.261-0.044,0.517-0.099,0.765-0.175
	c0.002,0,0.004-0.001,0.004-0.001c0.254-0.078,0.496-0.178,0.731-0.287c0.056-0.025,0.108-0.051,0.162-0.078
	C24.643,11.383,26,9.352,26,7V6C26,9.312,23.312,12,20,12z"/>
<path fill="#DB837C" d="M21.797,7.99h1.209V7.315c0-2.662-1.73-4.869-4.004-5.311C20.65,3.256,21.797,5.826,21.797,7.99z"/>
<path fill="#E2574C" d="M12,10.577c0-1.705-1.343-3.088-3-3.088L3,9.548c-2.408,1.063-3,2.411-3,4.117v4.117C0,21.191,2.687,25,6,25
	h1c0.552,0,1-2.887,1-5.159s-0.448-4.118-1-4.118C7,15.722,12,12.283,12,10.577z"/>
<path fill="#C04A40" d="M2,16.781v-4.117c0-1.309,0.357-2.405,1.606-3.325L3,9.548c-2.408,1.063-3,2.411-3,4.117v4.117
	C0,21.191,2.687,25,6,25h1c0,0-0.16,0.627,0,0C3.894,24.681,2,20.037,2,16.781z"/>
</svg>
