<?xml version="1.0" encoding="utf-8"?>
<!-- Generator: Adobe Illustrator 16.2.1, SVG Export Plug-In . SVG Version: 6.00 Build 0)  -->
<!DOCTYPE svg PUBLIC "-//W3C//DTD SVG 1.1//EN" "http://www.w3.org/Graphics/SVG/1.1/DTD/svg11.dtd">
<svg version="1.1" id="Слой_1" xmlns="http://www.w3.org/2000/svg" xmlns:xlink="http://www.w3.org/1999/xlink" x="0px" y="0px"
	 width="32px" height="32px" viewBox="0 0 32 32" enable-background="new 0 0 32 32" xml:space="preserve">
<path fill="#3DB39E" d="M3,19h26c1.657,0,3,1.344,3,3v7c0,1.656-1.343,3-3,3H3c-1.657,0-3-1.344-3-3v-7C0,20.344,1.343,19,3,19z"/>
<path fill="#226256" d="M10,23c2.209,0,4,1.119,4,2.5S12.209,28,10,28s-4-1.119-4-2.5S7.791,23,10,23z"/>
<g>
	<g>
		<path fill="#CCD0D2" d="M12,2c0-1.104-0.896-2-2-2S8,0.896,8,2c0,0.739,0.404,1.377,1,1.723v24.189C9.321,27.964,9.652,28,10,28
			s0.679-0.036,1-0.088V3.723C11.596,3.377,12,2.739,12,2z"/>
	</g>
	<g>
		<path fill="#CCD0D2" d="M12,2c0-1.104-0.896-2-2-2S8,0.896,8,2c0,0.739,0.404,1.377,1,1.723v24.189C9.321,27.964,9.652,28,10,28
			s0.679-0.036,1-0.088V3.723C11.596,3.377,12,2.739,12,2z"/>
	</g>
</g>
<path fill="#BF392C" d="M11,4l8,4.5l-8,4.562V4z"/>
<path fill="#226256" d="M22.396,23.688c1.104,0,2,0.896,2,2s-0.896,2-2,2s-2-0.896-2-2S21.291,23.688,22.396,23.688z"/>
<path fill="#E4E7E7" d="M23,23c1.104,0,2,0.896,2,2s-0.896,2-2,2s-2-0.896-2-2S21.896,23,23,23z"/>
</svg>
