<?xml version="1.0" encoding="utf-8"?>
<!-- Generator: Adobe Illustrator 16.2.1, SVG Export Plug-In . SVG Version: 6.00 Build 0)  -->
<!DOCTYPE svg PUBLIC "-//W3C//DTD SVG 1.1//EN" "http://www.w3.org/Graphics/SVG/1.1/DTD/svg11.dtd">
<svg version="1.1" id="Слой_1" xmlns="http://www.w3.org/2000/svg" xmlns:xlink="http://www.w3.org/1999/xlink" x="0px" y="0px"
	 width="32px" height="32px" viewBox="0 0 32 32" enable-background="new 0 0 32 32" xml:space="preserve">
<path fill="#F77F00" d="M14.08,0.135c5.902-0.631,10.466,1.553,13.522,4.884c2.035,2.217,4.298,6.263,4.383,10.519
	c0.182,8.946-6.299,15.771-14.525,16.403c-5.758,0.442-10.275-1.881-13.147-5.01c-2.362-2.572-4.218-6.051-4.299-10.644
	c-0.083-4.633,1.84-8.339,4.048-10.893C6.293,2.812,9.604,0.613,14.08,0.135z M22.923,17.279c2.104,2.791,5.908,4.312,6.057-0.996
	c0.068-2.445-0.883-5.405-1.926-7.137c-2.03-3.365-6.621-6.465-11.947-6.099C9.133,3.46,4.639,7.696,3.416,13.169
	c-0.447,1.999-0.875,5.017,0.642,5.709c1.497,0.685,4.307-0.295,5.268-1.47c2.144-2.619,1.747-6.732,1.607-10.418
	C17.041,8.785,19.579,12.841,22.923,17.279z"/>
</svg>
