<?xml version="1.0" encoding="utf-8"?>
<!-- Generator: Adobe Illustrator 16.2.1, SVG Export Plug-In . SVG Version: 6.00 Build 0)  -->
<!DOCTYPE svg PUBLIC "-//W3C//DTD SVG 1.1//EN" "http://www.w3.org/Graphics/SVG/1.1/DTD/svg11.dtd">
<svg version="1.1" id="Слой_1" xmlns="http://www.w3.org/2000/svg" xmlns:xlink="http://www.w3.org/1999/xlink" x="0px" y="0px"
	 width="32px" height="29px" viewBox="0 0 32 29" enable-background="new 0 0 32 29" xml:space="preserve">
<path fill="#EFC75E" d="M16,0c2.209,0,4,1.791,4,4s-1.791,4-4,4s-4-1.791-4-4S13.791,0,16,0z"/>
<path fill="#D7B354" d="M16,0c-0.171,0-0.334,0.029-0.5,0.05C17.471,0.299,19,1.962,19,4s-1.529,3.701-3.5,3.95
	C15.666,7.971,15.829,8,16,8c2.209,0,4-1.791,4-4S18.209,0,16,0z"/>
<path fill="#349886" d="M16,6c7.732,0,14,6.344,14,14.168c-7.098,0-22.377,0-28,0C2,12.344,8.268,6,16,6z"/>
<path fill="#49A392" d="M16,6c2.996,0,6,5.82,6,13c0,7.18,1.18,7-6,7c-7.18,0-6,0.18-6-7C10,11.82,13.021,6,16,6z"/>
<path fill="#31907F" d="M2.008,20.5h27.983c-0.009-0.682-0.072-1.346-0.173-2H2.181C2.081,19.154,2.016,19.818,2.008,20.5z"/>
<path fill="#469B8C" d="M22.018,20.5C22.008,20.036,22,19.546,22,19c0-0.169-0.01-0.333-0.014-0.5H10.013
	C10.01,18.667,10,18.831,10,19c0,0.546-0.007,1.036-0.017,1.5H22.018z"/>
<path fill="#3DB39E" d="M2,20h28c1.104,0,2,0.896,2,2v5c0,1.104-0.896,2-2,2H2c-1.104,0-2-0.896-2-2v-5C0,20.896,0.896,20,2,20z"/>
<path fill="#E4E7E7" d="M14.5,23h3c0.828,0,1.5,0.672,1.5,1.5S18.328,26,17.5,26h-3c-0.828,0-1.5-0.672-1.5-1.5S13.672,23,14.5,23z"
	/>
</svg>
