<?xml version="1.0" encoding="utf-8"?>
<!-- Generator: Adobe Illustrator 16.2.1, SVG Export Plug-In . SVG Version: 6.00 Build 0)  -->
<!DOCTYPE svg PUBLIC "-//W3C//DTD SVG 1.1//EN" "http://www.w3.org/Graphics/SVG/1.1/DTD/svg11.dtd">
<svg version="1.1" id="Слой_1" xmlns="http://www.w3.org/2000/svg" xmlns:xlink="http://www.w3.org/1999/xlink" x="0px" y="0px"
	 width="32px" height="30px" viewBox="0 0 32 30" enable-background="new 0 0 32 30" xml:space="preserve">
<g>
	<path fill="#324D5B" d="M16,0C8.268,0,2,6.268,2,14v5h2v-5C4,7.373,9.373,2,16,2s12,5.373,12,12v5h2v-5C30,6.268,23.732,0,16,0z"/>
</g>
<g>
	<path fill="#E2574C" d="M5.5,17C2.463,17,0,19.463,0,22.5S2.463,28,5.5,28S7,25.537,7,22.5S8.537,17,5.5,17z M26.802,17
		c-2.87,0-1.418,2.463-1.418,5.5S23.932,28,26.802,28C29.673,28,32,25.537,32,22.5S29.673,17,26.802,17z"/>
</g>
<g>
	<path fill="#CCD0D2" d="M8,15c-1.656,0-3,1.344-3,3v9c0,1.657,1.344,3,3,3s3-1.343,3-3v-9C11,16.344,9.656,15,8,15z M24,15
		c-1.656,0-3,1.344-3,3v9c0,1.657,1.344,3,3,3s3-1.343,3-3v-9C27,16.344,25.656,15,24,15z"/>
</g>
<g>
	<path fill="#C04A40" d="M27,27.989c0.713-0.028,1.389-0.208,2-0.511v-9.957c-0.611-0.304-1.287-0.482-2-0.512V27.989z"/>
	<path fill="#C04A40" d="M3,27.395c0.61,0.312,1.284,0.517,2,0.58V17.025c-0.716,0.063-1.39,0.268-2,0.58V27.395z"/>
</g>
<g>
	<path fill="#D9DCDD" d="M11,27v-9c0-1.656-1.344-3-3-3v15C9.656,30,11,28.657,11,27z"/>
	<path fill="#D9DCDD" d="M21,18v9c0,1.657,1.344,3,3,3V15C22.344,15,21,16.344,21,18z"/>
</g>
</svg>
