<?xml version="1.0" encoding="utf-8"?>
<!-- Generator: Adobe Illustrator 16.2.1, SVG Export Plug-In . SVG Version: 6.00 Build 0)  -->
<!DOCTYPE svg PUBLIC "-//W3C//DTD SVG 1.1//EN" "http://www.w3.org/Graphics/SVG/1.1/DTD/svg11.dtd">
<svg version="1.1" id="Слой_1" xmlns="http://www.w3.org/2000/svg" xmlns:xlink="http://www.w3.org/1999/xlink" x="0px" y="0px"
	 width="32px" height="32px" viewBox="0 0 32 32" enable-background="new 0 0 32 32" xml:space="preserve">
<path fill="#76CC1E" d="M16,0c8.837,0,16,7.163,16,16c0,8.836-7.163,15.999-16,15.999S0,24.836,0,16C0,7.163,7.163,0,16,0z"/>
<path fill="#FFFFFF" d="M22.465,23.449c-1.857,1.229-3.289,0.049-3.402-0.085c-0.11-0.133-4.283-4.776-4.502-5.041h-0.01v2.616
	c0,1.571-0.49,3.068-2.525,3.068c-2.035,0-2.512-1.771-2.512-2.939v-9.94c0-1.261,0.302-1.862,0.641-2.282
	c0.339-0.421,0.961-0.896,1.809-0.896c0.847,0,1.399,0.293,2.04,0.987c0.641,0.693,0.547,1.588,0.547,1.588v2.895h0.025
	c0.292-0.408,3.282-4.135,3.508-4.456c0.237-0.342,1.857-1.706,3.715-0.366c1.82,1.448,0.691,3.263,0.641,3.336
	c-0.051,0.072-2.969,4.052-2.969,4.052s3.508,3.921,3.635,4.079C23.23,20.223,24.234,21.95,22.465,23.449z"/>
</svg>
