<?xml version="1.0" encoding="utf-8"?>
<!-- Generator: Adobe Illustrator 16.2.1, SVG Export Plug-In . SVG Version: 6.00 Build 0)  -->
<!DOCTYPE svg PUBLIC "-//W3C//DTD SVG 1.1//EN" "http://www.w3.org/Graphics/SVG/1.1/DTD/svg11.dtd">
<svg version="1.1" id="Слой_1" xmlns="http://www.w3.org/2000/svg" xmlns:xlink="http://www.w3.org/1999/xlink" x="0px" y="0px"
	 width="32px" height="32px" viewBox="-0.017 0 32 32" enable-background="new -0.017 0 32 32" xml:space="preserve">
<path fill="#BF9F4B" d="M0.983,7h2v3h-2c-0.553,0-1-0.447-1-1V8C-0.017,7.447,0.43,7,0.983,7z"/>
<path fill="#EFC75E" d="M28.983,7h2c0.552,0,1,0.447,1,1v1c0,0.553-0.448,1-1,1h-2V7z"/>
<path fill="#64C2B1" d="M9.983,0h12c4.418,0,8,3.582,8,8v2c0,1.656-1.344,3-3,3h-22c-1.657,0-3-1.344-3-3V8
	C1.983,3.582,5.565,0,9.983,0z"/>
<path fill="#93D4C9" d="M25.749,9.985h2.088V8.974c0-3.993-2.988-7.302-6.912-7.965C23.771,2.883,25.749,6.739,25.749,9.985z"/>
<path fill="#F7CB8B" d="M13.983,13h4v16h-4V13z"/>
<path fill="#BCA67D" d="M13.983,13h4v1l-4,3V13z"/>
<path fill="#E8AB54" d="M11.983,25h8c2.762,0,5,2.238,5,5v1h-18v-1C6.983,27.238,9.221,25,11.983,25z"/>
<path fill="#F5B861" d="M4.983,29h22c1.104,0,2,0.896,2,2v1h-26v-1C2.983,29.896,3.877,29,4.983,29z"/>
<path fill="#E8AB54" d="M23.983,13h1v7h-1V13z"/>
<path fill="#BF9F4B" d="M24.483,19c0.828,0,1.5,0.672,1.5,1.5s-0.672,1.5-1.5,1.5c-0.829,0-1.5-0.672-1.5-1.5S23.654,19,24.483,19z"
	/>
<path fill="#5AAE9F" d="M4.965,10V8c0-4.418,3.582-8,8-8H9.983c-4.418,0-8,3.582-8,8v2c0,1.656,1.343,3,3,3h2.982
	C6.308,13,4.965,11.656,4.965,10z"/>
</svg>
