<?xml version="1.0" encoding="utf-8"?>
<!-- Generator: Adobe Illustrator 16.2.1, SVG Export Plug-In . SVG Version: 6.00 Build 0)  -->
<!DOCTYPE svg PUBLIC "-//W3C//DTD SVG 1.1//EN" "http://www.w3.org/Graphics/SVG/1.1/DTD/svg11.dtd">
<svg version="1.1" id="Слой_1" xmlns="http://www.w3.org/2000/svg" xmlns:xlink="http://www.w3.org/1999/xlink" x="0px" y="0px"
	 width="18px" height="32px" viewBox="0 0 18 32" enable-background="new 0 0 18 32" xml:space="preserve">
<path fill="#324D5B" d="M3,0h12c1.657,0,3,1.344,3,3v26c0,1.657-1.343,3-3,3H3c-1.657,0-3-1.343-3-3V3C0,1.344,1.343,0,3,0z"/>
<path fill="#3DB39E" d="M9,22c1.657,0,3,1.343,3,3s-1.343,3-3,3s-3-1.343-3-3S7.343,22,9,22z"/>
<path fill="#F4B459" d="M9,13c1.657,0,3,1.344,3,3c0,1.657-1.343,3-3,3s-3-1.343-3-3C6,14.344,7.343,13,9,13z"/>
<path fill="#E2594E" d="M9,4c1.657,0,3,1.344,3,3s-1.343,3-3,3S6,8.656,6,7S7.343,4,9,4z"/>
<path fill="#E87970" d="M9,7c1.108,0,2.064,0.607,2.584,1.5C11.842,8.057,12,7.549,12,7c0-1.656-1.343-3-3-3S6,5.344,6,7
	c0,0.549,0.158,1.057,0.416,1.5C6.936,7.607,7.892,7,9,7z"/>
<path fill="#F6C37A" d="M9,16c1.108,0,2.064,0.607,2.584,1.5C11.842,17.058,12,16.55,12,16c0-1.656-1.343-3-3-3s-3,1.344-3,3
	c0,0.55,0.158,1.058,0.416,1.5C6.936,16.607,7.892,16,9,16z"/>
<path fill="#64C2B1" d="M9,25c1.108,0,2.064,0.607,2.584,1.5C11.842,26.058,12,25.549,12,25c0-1.657-1.343-3-3-3s-3,1.343-3,3
	c0,0.549,0.158,1.058,0.416,1.5C6.936,25.607,7.892,25,9,25z"/>
<path fill="#111B20" d="M9,22c1.486,0,2.71,1.082,2.95,2.5C11.977,24.337,12,24.171,12,24c0-1.657-1.343-3-3-3s-3,1.343-3,3
	c0,0.171,0.023,0.337,0.05,0.5C6.29,23.082,7.514,22,9,22z"/>
<path fill="#111B20" d="M9,13c1.486,0,2.71,1.083,2.95,2.5C11.977,15.337,12,15.171,12,15c0-1.656-1.343-3-3-3s-3,1.344-3,3
	c0,0.171,0.023,0.337,0.05,0.5C6.29,14.083,7.514,13,9,13z"/>
<path fill="#111B20" d="M9,4c1.486,0,2.71,1.083,2.95,2.5C11.977,6.336,12,6.171,12,6c0-1.656-1.343-3-3-3S6,4.344,6,6
	c0,0.171,0.023,0.336,0.05,0.5C6.29,5.083,7.514,4,9,4z"/>
<path fill="#333333" d="M15,1c1.103,0,2,0.897,2,2v26c0,1.103-0.897,2-2,2H3c-1.103,0-2-0.897-2-2V3c0-1.103,0.897-2,2-2H15 M15,0H3
	C1.343,0,0,1.344,0,3v26c0,1.657,1.343,3,3,3h12c1.657,0,3-1.343,3-3V3C18,1.344,16.657,0,15,0L15,0z"/>
</svg>
