<?xml version="1.0" encoding="utf-8"?>
<!-- Generator: Adobe Illustrator 16.2.1, SVG Export Plug-In . SVG Version: 6.00 Build 0)  -->
<!DOCTYPE svg PUBLIC "-//W3C//DTD SVG 1.1//EN" "http://www.w3.org/Graphics/SVG/1.1/DTD/svg11.dtd">
<svg version="1.1" id="Слой_1" xmlns="http://www.w3.org/2000/svg" xmlns:xlink="http://www.w3.org/1999/xlink" x="0px" y="0px"
	 width="32px" height="32px" viewBox="0 0 32 32" enable-background="new 0 0 32 32" xml:space="preserve">
<g>
	<g>
		<path fill="#2B414D" d="M5,13v15c0,2.209,4.925,4,11,4s11-1.791,11-4V13H5z"/>
	</g>
	<g>
		<path fill="#2B414D" d="M5,13v15c0,2.209,4.925,4,11,4s11-1.791,11-4V13H5z"/>
	</g>
</g>
<path fill="#E2574C" d="M27,14c0,0,0,1.791,0,4s-4.925,3-11,3S5,20.209,5,18c0-1.488,0-4,0-4H27z"/>
<path fill="#41545F" d="M9,31.086c1.661,0.498,3.731,0.821,6,0.896V14H9V31.086z"/>
<path fill="#E5685E" d="M15,20.991V14H9v6.492C10.661,20.803,12.731,20.957,15,20.991z"/>
<path fill="#41545F" d="M16,5c8.837,0,16,2.687,16,6s-7.163,6-16,6S0,14.313,0,11S7.163,5,16,5z"/>
<path fill="#2B414D" d="M16,7c4.418,0,8,1.343,8,3s-3.582,3-8,3s-8-1.343-8-3S11.582,7,16,7z"/>
<g>
	<g>
		<path fill="#E4E7E7" d="M12,0c-1.657,0-3,1.343-3,3v6h6V3C15,1.343,13.657,0,12,0z M19,1c-1.657,0-3,1.343-3,3v6h6V4
			C22,2.343,20.657,1,19,1z"/>
	</g>
	<g>
		<path fill="#E4E7E7" d="M12,0c-1.657,0-3,1.343-3,3v6h6V3C15,1.343,13.657,0,12,0z M19,1c-1.657,0-3,1.343-3,3v6h6V4
			C22,2.343,20.657,1,19,1z"/>
	</g>
</g>
<g>
	<g>
		<path fill="#E7A793" d="M12,3c-0.553,0-1,0.447-1,1v5h2V4C13,3.447,12.553,3,12,3z M19,4c-0.553,0-1,0.448-1,1v5h2V5
			C20,4.448,19.553,4,19,4z"/>
	</g>
	<g>
		<path fill="#E7A793" d="M12,3c-0.553,0-1,0.447-1,1v5h2V4C13,3.447,12.553,3,12,3z M19,4c-0.553,0-1,0.448-1,1v5h2V5
			C20,4.448,19.553,4,19,4z"/>
	</g>
</g>
<g>
	<path fill="#BFC6C8" d="M15,12.974V9H9v2.451C10.21,12.271,12.413,12.853,15,12.974z"/>
	<path fill="#BFC6C8" d="M16,13c2.393,0,4.534-0.396,6-1.02V10h-6V13z"/>
</g>
<g>
	<path fill="#C49486" d="M18,12.902c0.71-0.069,1.381-0.172,2-0.307V10h-2V12.902z"/>
	<path fill="#C49486" d="M11,12.34c0.602,0.181,1.274,0.33,2,0.44V9h-2V12.34z"/>
</g>
</svg>
