<?xml version="1.0" encoding="utf-8"?>
<!-- Generator: Adobe Illustrator 16.2.1, SVG Export Plug-In . SVG Version: 6.00 Build 0)  -->
<!DOCTYPE svg PUBLIC "-//W3C//DTD SVG 1.1//EN" "http://www.w3.org/Graphics/SVG/1.1/DTD/svg11.dtd">
<svg version="1.1" id="Слой_1" xmlns="http://www.w3.org/2000/svg" xmlns:xlink="http://www.w3.org/1999/xlink" x="0px" y="0px"
	 width="23.99px" height="32.033px" viewBox="0 0 23.99 32.033" enable-background="new 0 0 23.99 32.033" xml:space="preserve">
<path fill="#E7E9E9" d="M6.991,4.024c7.557-3.016,0.051-0.031,7.519-3.03c9.021-3.622,9.48,3.187,9.48,9.448
	c0,0-1.148,7.359-2.844,11.458c-3.058,7.392-5.125,8.285-7.216,9.326c-2.229,1.111-2.856,0.996-5.134,0
	C3.84,29.06,0.568,19.856,0.287,17.054c-0.281-2.802-0.471-2.639,0-6.539C0.729,6.863,5.502,4.747,6.991,4.024z"/>
<path fill="#C64D41" d="M8.93,6.296c5.362-2.448,0.036-0.025,5.335-2.46c6.398-2.94,6.728,2.586,6.728,7.669
	c0,0-0.815,5.973-2.019,9.301c-2.17,6-3.637,6.726-5.12,7.57c-1.582,0.9-2.025,0.809-3.642,0c-3.518-1.76-5.839-9.229-6.039-11.504
	c-0.199-2.275-0.333-2.142,0-5.307C4.486,8.6,7.873,6.883,8.93,6.296z"/>
<path fill="#B0B2B2" d="M10.798,31.228c-4.957-2.168-8.229-11.369-8.51-14.172c-0.281-2.803-0.471-2.64,0-6.54
	c0.44-3.653,5.214-5.77,6.702-6.492c7.558-3.016,0.052-0.031,7.52-3.03c1.26-0.506,2.348-0.802,3.295-0.931
	c-1.312-0.229-3.035,0.023-5.295,0.931c-7.468,2.999,0.038,0.015-7.519,3.03c-1.489,0.723-6.263,2.839-6.703,6.492
	c-0.471,3.899-0.281,3.736,0,6.54c0.281,2.803,3.553,12.004,8.51,14.172c1.673,0.73,2.458,0.981,3.64,0.625
	C11.975,31.722,11.46,31.517,10.798,31.228z"/>
<path fill="#D7837A" d="M20.973,9.955c-0.855-0.099-2.08-0.339-2.98-0.931c-1.529-1.005-2.234-0.497-4-1s-0.76-1.217-4-2
	C9.877,5.996,9.761,5.986,9.645,5.97C9.429,6.069,9.195,6.175,8.93,6.297c-1.057,0.587-4.443,2.304-4.757,5.27
	c-0.333,3.165-0.199,3.032,0,5.307c0.039,0.445,0.163,1.098,0.359,1.861c1.067,0.422,2.317,0.859,3.459,1.289
	c2.881,1.082,2.052,0.506,3,0c0.949-0.506,0.498-1.119,3-2s1.015-0.861,2-1c0.621-0.086,1.063,3.988,1.676,6.963
	c0.179-0.375,0.361-0.777,0.551-1.23c-0.798-2.279-1.148-6.678-2.227-6.732c-1.368-0.067-0.346-2.459,0-3
	c0.347-0.541-0.732-1.877,0-2c0.733-0.123,0.091-0.868,1-1c0.91-0.132,1.104,0.503,3,1c0.434,0.113,0.746,0.185,1,0.242
	C20.988,10.829,20.984,10.391,20.973,9.955z"/>
<path fill="#F2F3F3" d="M9.49,11.024c1.382,0,2.5,1.343,2.5,3c0,1.657-1.118,3-2.5,3c-1.38,0-2.5-1.342-2.5-3
	C6.991,12.366,8.11,11.024,9.49,11.024z"/>
</svg>
