<?xml version="1.0" encoding="utf-8"?>
<!-- Generator: Adobe Illustrator 16.2.1, SVG Export Plug-In . SVG Version: 6.00 Build 0)  -->
<!DOCTYPE svg PUBLIC "-//W3C//DTD SVG 1.1//EN" "http://www.w3.org/Graphics/SVG/1.1/DTD/svg11.dtd">
<svg version="1.1" id="Слой_1" xmlns="http://www.w3.org/2000/svg" xmlns:xlink="http://www.w3.org/1999/xlink" x="0px" y="0px"
	 width="32px" height="24px" viewBox="0 0 32 24" enable-background="new 0 0 32 24" xml:space="preserve">
<g>
	<g>
		<path fill="#B6B9B9" d="M7,20c-1.104,0-2,0.896-2,2s0.896,2,2,2s2-0.896,2-2S8.104,20,7,20z M25,20c-1.104,0-2,0.896-2,2
			s0.896,2,2,2c1.104,0,2-0.896,2-2S26.104,20,25,20z"/>
	</g>
</g>
<path fill="#E4E7E7" d="M3,0h26c1.657,0,3,1.343,3,3v16c0,1.657-1.343,3-3,3H3c-1.657,0-3-1.343-3-3V3C0,1.343,1.342,0,3,0z"/>
<path fill="#EFF1F1" d="M29,0h-5v22h5c1.657,0,3-1.343,3-3V3C32,1.343,30.657,0,29,0z"/>
<path fill="#CDCFCF" d="M29.44,3.559c-0.787-0.787-2.062-0.787-2.851,0c-0.787,0.787-0.787,2.063,0,2.851s2.062,0.788,2.851,0
	S30.229,4.346,29.44,3.559z"/>
<path fill="#4B5C66" d="M5,3h15c1.104,0,2,0.896,2,2v12c0,1.104-0.896,2-2,2H5c-1.104,0-2-0.896-2-2V5C3,3.896,3.896,3,5,3z"/>
<path fill="#8D999F" d="M27,17h2c0.553,0,1,0.447,1,1s-0.447,1-1,1h-2c-0.552,0-1-0.447-1-1S26.448,17,27,17z"/>
<path fill="#556771" d="M20,3H7.527v9c0,1.104,0.896,2,2,2H22V5C22,3.896,21.104,3,20,3z"/>
<path fill="#2B414D" d="M20,5v12H5V5H20 M20,3H5C3.896,3,3,3.896,3,5v12c0,1.104,0.896,2,2,2h15c1.104,0,2-0.896,2-2V5
	C22,3.896,21.104,3,20,3L20,3z"/>
</svg>
