<?xml version="1.0" encoding="utf-8"?>
<!-- Generator: Adobe Illustrator 16.2.1, SVG Export Plug-In . SVG Version: 6.00 Build 0)  -->
<!DOCTYPE svg PUBLIC "-//W3C//DTD SVG 1.1//EN" "http://www.w3.org/Graphics/SVG/1.1/DTD/svg11.dtd">
<svg version="1.1" id="Слой_1" xmlns="http://www.w3.org/2000/svg" xmlns:xlink="http://www.w3.org/1999/xlink" x="0px" y="0px"
	 width="31px" height="32px" viewBox="0 0 31 32" enable-background="new 0 0 31 32" xml:space="preserve">
<path fill="#E4E7E7" d="M2,2h27c1.104,0,2,0.896,2,2v26c0,1.104-0.896,2-2,2H2c-1.104,0-2-0.896-2-2V4C0,2.896,0.896,2,2,2z"/>
<g>
	<path fill="#D7D7D7" d="M0,6v1h31V6H0z M0,15h31v-1H0V15z M0,11h31v-1H0V11z M0,19h31v-1H0V19z M0,27h31v-1H0V27z M0,23h31v-1H0V23
		z"/>
</g>
<path fill="#E39F99" d="M24,2h1v30h-1V2z"/>
<g>
	<path fill="#CCD0D2" d="M4,0C3.447,0,3,0.447,3,1v2c0,0.553,0.447,1,1,1s1-0.447,1-1V1C5,0.447,4.553,0,4,0z M8,0
		C7.447,0,7,0.447,7,1v2c0,0.553,0.447,1,1,1s1-0.447,1-1V1C9,0.447,8.553,0,8,0z M12,0c-0.553,0-1,0.447-1,1v2c0,0.553,0.447,1,1,1
		s1-0.447,1-1V1C13,0.447,12.553,0,12,0z M16,0c-0.553,0-1,0.447-1,1v2c0,0.553,0.447,1,1,1c0.553,0,1-0.447,1-1V1
		C17,0.447,16.553,0,16,0z M20,0c-0.553,0-1,0.447-1,1v2c0,0.553,0.447,1,1,1s1-0.447,1-1V1C21,0.447,20.553,0,20,0z M24,0
		c-0.553,0-1,0.447-1,1v2c0,0.553,0.447,1,1,1s1-0.447,1-1V1C25,0.447,24.553,0,24,0z M28,0c-0.553,0-1,0.447-1,1v2
		c0,0.553,0.447,1,1,1s1-0.447,1-1V1C29,0.447,28.553,0,28,0z"/>
</g>
<g>
	<rect x="24" y="26" fill="#DD9791" width="1" height="1"/>
	<rect x="24" y="22" fill="#DD9791" width="1" height="1"/>
	<rect x="24" y="18" fill="#DD9791" width="1" height="1"/>
	<rect x="24" y="6" fill="#DD9791" width="1" height="1"/>
	<rect x="24" y="14" fill="#DD9791" width="1" height="1"/>
	<rect x="24" y="10" fill="#DD9791" width="1" height="1"/>
</g>
<g>
	<path fill="#C1C5C7" d="M9,3H7c0,0.553,0.447,1,1,1S9,3.553,9,3z"/>
	<path fill="#C1C5C7" d="M13,3h-2c0,0.553,0.447,1,1,1S13,3.553,13,3z"/>
	<path fill="#C1C5C7" d="M5,3H3c0,0.553,0.447,1,1,1S5,3.553,5,3z"/>
	<path fill="#C1C5C7" d="M17,3h-2c0,0.553,0.447,1,1,1C16.553,4,17,3.553,17,3z"/>
	<path fill="#C1C5C7" d="M28,4c0.553,0,1-0.447,1-1h-2C27,3.553,27.447,4,28,4z"/>
	<path fill="#C1C5C7" d="M25,3h-2c0,0.553,0.447,1,1,1S25,3.553,25,3z"/>
	<path fill="#C1C5C7" d="M21,3h-2c0,0.553,0.447,1,1,1S21,3.553,21,3z"/>
</g>
</svg>
