<?xml version="1.0" encoding="utf-8"?>
<!-- Generator: Adobe Illustrator 16.2.1, SVG Export Plug-In . SVG Version: 6.00 Build 0)  -->
<!DOCTYPE svg PUBLIC "-//W3C//DTD SVG 1.1//EN" "http://www.w3.org/Graphics/SVG/1.1/DTD/svg11.dtd">
<svg version="1.1" id="Слой_1" xmlns="http://www.w3.org/2000/svg" xmlns:xlink="http://www.w3.org/1999/xlink" x="0px" y="0px"
	 width="30px" height="32px" viewBox="0 0 30 32" enable-background="new 0 0 30 32" xml:space="preserve">
<path fill="#E6E8E9" d="M15,0c4.418,0,8,3.582,8,8c0,2.963-2.611,12.551-5.006,13.934C16.818,22.611,16.455,23,15,23
	c-1.472,0-1.85-0.396-3.035-1.09C9.594,20.521,7,10.947,7,8C7,3.582,10.582,0,15,0z"/>
<path fill="#F0F1F2" d="M19.193,9.986h1.814V9.088c0-3.549-2.596-6.49-6.005-7.08C17.477,3.674,19.193,7.102,19.193,9.986z"/>
<path fill="#B8BABA" d="M12.965,21.91C10.594,20.521,8,10.947,8,8c0-4.249,3.316-7.715,7.5-7.975C15.334,0.015,15.169,0,15,0
	c-4.418,0-8,3.582-8,8c0,2.947,2.594,12.521,4.965,13.91C13.15,22.604,13.528,23,15,23c0.184,0,0.348-0.006,0.5-0.02
	C14.423,22.896,14.003,22.518,12.965,21.91z"/>
<path fill="#EFC75E" d="M20,24c0,2.65-2.238,4.8-5,4.8c-2.762,0-5-2.149-5-4.8l0,0l-3-2v2c0,4.418,3.582,8,8,8s8-3.582,8-8v-2L20,24
	z"/>
<g>
	<path fill="#C8AC5B" d="M20,24c0,0.716-0.175,1.391-0.468,2h3.204C22.902,25.359,23,24.691,23,24v-1h-1.5L20,24z"/>
	<path fill="#C8AC5B" d="M10.467,26C10.174,25.391,10,24.716,10,24l-1.5-1H7v1c0,0.691,0.097,1.359,0.262,2H10.467z"/>
</g>
<path fill="#E2574C" d="M3,17c0,0,5.529,3,12.045,3C21.529,20,27,17,27,17c1.234-0.731,3,0.344,3,2s-2.993,3.016-3,3
	c0,0-5.477,3-11.963,3C8.524,25,3,22,3,22c-0.007-0.009-3-1.344-3-3S1.748,16.251,3,17z"/>
</svg>
