<?xml version="1.0" encoding="utf-8"?>
<!-- Generator: Adobe Illustrator 16.2.1, SVG Export Plug-In . SVG Version: 6.00 Build 0)  -->
<!DOCTYPE svg PUBLIC "-//W3C//DTD SVG 1.1//EN" "http://www.w3.org/Graphics/SVG/1.1/DTD/svg11.dtd">
<svg version="1.1" id="Слой_1" xmlns="http://www.w3.org/2000/svg" xmlns:xlink="http://www.w3.org/1999/xlink" x="0px" y="0px"
	 width="32px" height="32px" viewBox="0 0 32 32" enable-background="new 0 0 32 32" xml:space="preserve">
<path fill="#CCD0D2" d="M30,5h-2l0.006,2.002h1.001c0.553,0,1,0.447,1,1c0,0.55-0.027,0.993,0,0.999H30v3.05
	c-0.006,0.061-0.004,0.201,0,0.399v0.552h0.007c0,0.553-0.448,1-1,1h-1.001H28H15c-1.104,0-2,0.896-2,2v2.001
	c0,1.094,0.91,1.979,2,1.997c0,0,0-3.023,0-3c0-0.553,0.439-1.007,0.992-1.007h1L17,16.002h13c1.104,0,2-0.895,2-2V7
	C32,5.896,31.104,5,30,5z"/>
<path fill="#E5764F" d="M14,18.013L14,18.013c1.104,0,1.999,0.895,1.999,1.998l1,9.991C16.999,31.105,16.104,32,15,32h-2
	c-1.104,0-1.999-0.895-1.999-1.998l1-9.991C12.001,18.907,12.896,18.013,14,18.013z"/>
<path fill="#F1CC7B" d="M2,0h24c1.104,0,2,0.896,2,2v8c0,1.104-0.896,2-2,2H2c-1.104,0-2-0.896-2-2V2C0,0.896,0.896,0,2,0z"/>
<path fill="#1EA7CE" d="M3.994,0.001c0.43,2.122,3.519,4.94,5.939,5.801C13.3,6.998,15.583,2.6,17.986,1.896
	c2.404-0.705,2.129,1.537,4.026,0.977c1.764-0.521,3.703-2.578,3.973-2.872H3.994z"/>
<path fill="#CDAE68" d="M2,10V2c0-1.104,0.896-2,2-2H2C0.896,0,0,0.896,0,2v8c0,1.104,0.896,2,2,2h2C2.896,12,2,11.104,2,10z"/>
<path fill="#CE6A48" d="M12.001,30.002l1-9.991c0-0.93,0.638-1.704,1.499-1.928c-0.161-0.041-0.326-0.07-0.5-0.07
	c-1.104,0-1.999,0.895-1.999,1.998l-1,9.991C11.001,31.105,11.896,32,13,32h1C12.896,32,12.001,31.105,12.001,30.002z"/>
<path fill="#F4F5F5" d="M11.905,20.969h4.189l-0.096-0.958c0-1.104-0.896-1.998-1.999-1.998c-1.104,0-1.999,0.895-1.999,1.998
	L11.905,20.969z"/>
<path fill="#DBDCDC" d="M12.905,20.969l0.096-0.958c0-0.93,0.638-1.703,1.499-1.928c-0.001,0-0.001,0-0.002,0
	c-0.16-0.041-0.324-0.07-0.497-0.07c-1.104,0-1.999,0.895-1.999,1.998l-0.096,0.958H12.905z"/>
</svg>
