<?xml version="1.0" encoding="utf-8"?>
<!-- Generator: Adobe Illustrator 16.2.1, SVG Export Plug-In . SVG Version: 6.00 Build 0)  -->
<!DOCTYPE svg PUBLIC "-//W3C//DTD SVG 1.1//EN" "http://www.w3.org/Graphics/SVG/1.1/DTD/svg11.dtd">
<svg version="1.1" id="Слой_1" xmlns="http://www.w3.org/2000/svg" xmlns:xlink="http://www.w3.org/1999/xlink" x="0px" y="0px"
	 width="32px" height="32px" viewBox="0 0 32 32" enable-background="new 0 0 32 32" xml:space="preserve">
<path fill="#E99651" d="M18,5h7v21h-7V5z"/>
<path fill="#F4B459" d="M18,0c0,0-6.013,0-10.02,0C3.608,0,0,5.804,0,12.955C0.031,13.012,0,32,0,32h18V13l7-3V0H18z"/>
<path fill="#D07C40" d="M25,0c3.866,0,7,5.82,7,13s-3.134,13-7,13s-7-5.82-7-13C18,5.558,21.134,0,25,0z"/>
<path fill="#A66333" d="M25,9c1.104,0,2,1.791,2,4s-0.896,4-2,4s-2-1.791-2-4S23.896,9,25,9z"/>
</svg>
