<?xml version="1.0" encoding="utf-8"?>
<!-- Generator: Adobe Illustrator 16.2.1, SVG Export Plug-In . SVG Version: 6.00 Build 0)  -->
<!DOCTYPE svg PUBLIC "-//W3C//DTD SVG 1.1//EN" "http://www.w3.org/Graphics/SVG/1.1/DTD/svg11.dtd">
<svg version="1.1" id="Слой_1" xmlns="http://www.w3.org/2000/svg" xmlns:xlink="http://www.w3.org/1999/xlink" x="0px" y="0px"
	 width="31.982px" height="31.922px" viewBox="0 0 31.982 31.922" enable-background="new 0 0 31.982 31.922" xml:space="preserve">
<path fill="#3DB39E" d="M26.991-0.039h-1c0,0.552-0.448,1-1,1c-0.553,0-1-0.448-1-1h-16c0,0.552-0.448,1-1,1c-0.553,0-1-0.448-1-1
	h-1c-2.762,0-5,2.238-5,5v22c0,2.762,2.238,5,5,5h1c0-0.553,0.447-1,1-1c0.552,0,1,0.447,1,1h16c0-0.553,0.447-1,1-1
	c0.552,0,1,0.447,1,1h1c2.762,0,5-2.238,5-5v-22C31.991,2.2,29.753-0.039,26.991-0.039z"/>
<g>
	<g>
		<path fill="#78C9BB" d="M29.991,11.961v-1h-9v-9h-1v9h-2v-9h-1v9h-2v-9h-1v9h-2v-9h-1v9h-9v1h9v2h-9v1h9v2h-9v1h9v2h-9v1h9v8h1v-8
			h2v8h1v-8h2v8h1v-8h2v8h1v-8h9v-1h-9v-2h9v-1h-9v-2h9v-1h-9v-2H29.991z M16.991,11.961v2h-2v-2H16.991z M16.991,14.961v2h-2v-2
			H16.991z M11.991,11.961h2v2h-2V11.961z M11.991,14.961h2v2h-2V14.961z M11.991,19.961v-2h2v2H11.991z M14.991,19.961v-2h2v2
			H14.991z M19.991,19.961h-2v-2h2V19.961z M19.991,16.961h-2v-2h2V16.961z M19.991,13.961h-2v-2h2V13.961z"/>
	</g>
</g>
<path fill="#324D5B" d="M10.991,7.961h10c1.657,0,3,1.343,3,3v10c0,1.656-1.343,3-3,3h-10c-1.657,0-3-1.344-3-3v-10
	C7.991,9.304,9.334,7.961,10.991,7.961z"/>
<g>
	<g>
		<path fill="#E4E7E7" d="M5.991,21.961h2v-12h-2V21.961z M23.991,9.961v12h2v-12H23.991z M9.991,25.961h12v-2h-12V25.961z
			 M9.991,7.961h12v-2h-12V7.961z"/>
	</g>
</g>
<g>
	<g>
		<path fill="#C2C5C5" d="M6.991,21.961h1v-12h-1V21.961z M9.991,7.961h12v-1h-12V7.961z M23.991,9.961v12h1v-12H23.991z
			 M9.991,24.961h12v-1h-12V24.961z"/>
	</g>
</g>
<g>
	<g>
		<path fill="#566B77" d="M10.991,19.961c-0.553,0-1,0.447-1,1s0.447,1,1,1s1-0.447,1-1S11.544,19.961,10.991,19.961z M10.991,9.961
			c-0.553,0-1,0.447-1,1c0,0.552,0.447,1,1,1s1-0.448,1-1C11.991,10.409,11.544,9.961,10.991,9.961z M20.991,11.961
			c0.553,0,1-0.448,1-1c0-0.553-0.447-1-1-1s-1,0.447-1,1C19.991,11.513,20.439,11.961,20.991,11.961z M20.991,19.961
			c-0.553,0-1,0.447-1,1s0.447,1,1,1s1-0.447,1-1S21.544,19.961,20.991,19.961z"/>
	</g>
</g>
<g>
	<g>
		<path fill="#EFC75E" d="M9.991,31.961h2v-3h-2V31.961z M16.991,31.961h2v-3h-2V31.961z M12.991,31.961h2v-3h-2V31.961z
			 M19.991,28.961v3h2v-3H19.991z"/>
	</g>
</g>
</svg>
