<?xml version="1.0" encoding="utf-8"?>
<!-- Generator: Adobe Illustrator 16.2.1, SVG Export Plug-In . SVG Version: 6.00 Build 0)  -->
<!DOCTYPE svg PUBLIC "-//W3C//DTD SVG 1.1//EN" "http://www.w3.org/Graphics/SVG/1.1/DTD/svg11.dtd">
<svg version="1.1" id="Слой_1" xmlns="http://www.w3.org/2000/svg" xmlns:xlink="http://www.w3.org/1999/xlink" x="0px" y="0px"
	 width="32px" height="32px" viewBox="0 0 32 32" enable-background="new 0 0 32 32" xml:space="preserve">
<path fill="#B5BDC0" d="M0,13l5-3v3l-5,3V13z"/>
<polygon fill="#35464F" points="2,14.8 3,14.2 3,11.2 2,11.8 "/>
<path fill="#111A1F" d="M5,0h27v11H5V0z"/>
<path fill="#1D7696" d="M5,11h27v1H5V11z"/>
<path fill="#2B414D" d="M0,3l5-3v11l-5,3V3z"/>
<path fill="#475F6C" d="M0,15l5-3v20H0V15z"/>
<path fill="#324D5B" d="M5,12h27v17H5V12z"/>
<path fill="#B3B8B9" d="M29,7c0.553,0,1,0.447,1,1s-0.447,1-1,1s-1-0.447-1-1S28.447,7,29,7z"/>
<polygon fill="#22343F" points="2,12.8 3,12.2 3,1.2 2,1.8 "/>
<polygon fill="#394952" points="2,13.8 2,31 3,31 3,13.2 "/>
<path fill="#111A1F" d="M0,32l5-3h27l-5,3H0z"/>
</svg>
