<?xml version="1.0" encoding="utf-8"?>
<!-- Generator: Adobe Illustrator 16.2.1, SVG Export Plug-In . SVG Version: 6.00 Build 0)  -->
<!DOCTYPE svg PUBLIC "-//W3C//DTD SVG 1.1//EN" "http://www.w3.org/Graphics/SVG/1.1/DTD/svg11.dtd">
<svg version="1.1" id="Слой_1" xmlns="http://www.w3.org/2000/svg" xmlns:xlink="http://www.w3.org/1999/xlink" x="0px" y="0px"
	 width="32px" height="32px" viewBox="0 0 32 32" enable-background="new 0 0 32 32" xml:space="preserve">
<path fill="#A82400" d="M16,0c8.837,0,16,7.163,16,16c0,8.836-7.163,15.999-16,15.999S0,24.836,0,16C0,7.163,7.163,0,16,0z"/>
<path fill="#FFFFFF" d="M20.046,22.731c0.391,0.752,1.1,1.433,2.258,1.432c0,0.506,0,1.026,0,1.628
	c-2.231,0.237-3.832-0.826-4.642-2.087c-6.392,1.202-10.038-2.995-9.631-8.562c0.276-3.786,3.475-7.018,7.348-7.297
	c2.212-0.159,4.811,0.549,6.354,1.946C25.546,13.24,24.252,20.835,20.046,22.731z M16.074,9.889
	c-5.656-0.138-6.241,13.26,0.794,11.87c-0.222-0.82-1.055-0.915-1.972-1.054c0-0.445,0.035-1.142,0.035-1.573
	c1.891-0.417,3.24,0.379,4.021,1.361C20.805,16.964,20.693,10.001,16.074,9.889z"/>
</svg>
