<?xml version="1.0" encoding="utf-8"?>
<!-- Generator: Adobe Illustrator 16.2.1, SVG Export Plug-In . SVG Version: 6.00 Build 0)  -->
<!DOCTYPE svg PUBLIC "-//W3C//DTD SVG 1.1//EN" "http://www.w3.org/Graphics/SVG/1.1/DTD/svg11.dtd">
<svg version="1.1" id="Слой_1" xmlns="http://www.w3.org/2000/svg" xmlns:xlink="http://www.w3.org/1999/xlink" x="0px" y="0px"
	 width="31.98px" height="26.014px" viewBox="0 0 31.98 26.014" enable-background="new 0 0 31.98 26.014" xml:space="preserve">
<path fill="#008FD5" d="M31.281,5.88c-1.195-0.016-3.702-0.354-7.045-2.156c-1.983-1.068-2.994-1.712-3.49-1.981
	c-0.145-0.081-0.712-0.161-0.712-0.237l-0.031,10.989l0,0c0,2.426-1.606,4.902-4.472,5.98c-3.527,1.328-7.243,0.036-8.263-2.877
	c-0.938-2.682,0.725-5.811,3.746-7.326c0.032-0.038,3.429-1.624,6.964-0.229l0.061-7.427c-1.087-0.34-2.958-0.616-4.299-0.616
	C6.16-0.001,0,5.823,0,13.007c0,7.183,6.138,13.007,13.719,13.007c7.58,0,14.398-5.824,14.398-13.007
	c0-0.599,0.047-1.187,0.047-1.762v0.001c0,0,1.705-0.819,2.648-2.147c0.942-1.328,0.965-1.517,0.965-1.517S32.475,5.896,31.281,5.88
	z"/>
</svg>
