<?xml version="1.0" encoding="utf-8"?>
<!-- Generator: Adobe Illustrator 16.2.1, SVG Export Plug-In . SVG Version: 6.00 Build 0)  -->
<!DOCTYPE svg PUBLIC "-//W3C//DTD SVG 1.1//EN" "http://www.w3.org/Graphics/SVG/1.1/DTD/svg11.dtd">
<svg version="1.1" id="Слой_1" xmlns="http://www.w3.org/2000/svg" xmlns:xlink="http://www.w3.org/1999/xlink" x="0px" y="0px"
	 width="26.02px" height="31.941px" viewBox="0 0 26.02 31.941" enable-background="new 0 0 26.02 31.941" xml:space="preserve">
<path fill="#E8AB54" d="M12.965,0c-0.387,0-0.773,0.111-1.109,0.336C11.774,0.39,9.371,1.961,7.019,2.539
	C5.48,2.918,3.822,2.974,2.99,2.974c-0.503,0-0.824-0.02-0.855-0.021C2.091,2.95,2.047,2.948,2.003,2.948
	c-0.506,0-0.996,0.191-1.368,0.54C0.231,3.865,0,4.395,0,4.947v6.002C0,29.437,12.098,31.818,12.611,31.91
	c0.117,0.021,0.234,0.031,0.354,0.031s0.237-0.011,0.354-0.031c0.514-0.092,12.7-2.473,12.7-20.961V5.947
	c0-0.554-0.23-2.083-0.637-2.461c-0.371-0.349-0.858-0.538-1.363-0.538c-0.046,0-0.093,0.002-0.139,0.005
	c-0.027,0.002-0.35,0.021-0.853,0.021c-0.833,0-2.459-0.057-3.999-0.436c-1.989-0.488-4.285-1.756-4.953-2.203
	C13.74,0.111,13.353,0,12.965,0L12.965,0z"/>
<path fill="#EBB86D" d="M26.004,5.659c-0.055-0.676-0.271-1.848-0.621-2.172c-0.371-0.349-0.858-0.538-1.363-0.538
	c-0.046,0-0.093,0.002-0.139,0.005c-0.027,0.002-0.35,0.021-0.853,0.021c-0.833,0-2.459-0.057-3.999-0.436
	c-1.989-0.488-4.285-1.756-4.953-2.203c-0.324-0.217-0.697-0.323-1.072-0.33v31.933c0.105-0.002,0.211-0.009,0.314-0.027
	c0.507-0.092,12.375-2.423,12.686-20.255V5.659z"/>
<path fill="#324D5B" d="M13.004,8.97c2.763,0,5,2.238,5,5c0,2.763-2.237,5-5,5c-2.762,0-5-2.237-5-5
	C8.004,11.209,10.242,8.97,13.004,8.97z"/>
<path fill="#E4E7E7" d="M13.004,10.97c1.657,0,3,1.345,3,3c0,1.656-1.343,3-3,3s-3-1.344-3-3
	C10.004,12.315,11.346,10.97,13.004,10.97z"/>
<g>
	<g>
		<path fill="#D69E4D" d="M4.143,2.941C4.137,2.942,4.135,2.942,4.131,2.942c0.001,0.002,0.002,0.012,0.004,0.012
			C4.135,2.953,4.141,2.943,4.143,2.941z M2,10.949V4.947c0-0.553,0.23-1.082,0.635-1.459C2.751,3.38,2.88,3.185,3.016,2.973
			c-0.009,0-0.019,0-0.025,0c-0.503,0-0.824-0.02-0.855-0.021C2.091,2.95,2.047,2.948,2.003,2.948c-0.506,0-0.996,0.191-1.368,0.54
			C0.231,3.865,0,4.395,0,4.947v6.002C0,26.936,9.041,30.877,11.82,31.71C8.1,29.587,2,24.08,2,10.949z"/>
	</g>
	<g>
		<path fill="#D69E4D" d="M4.143,2.941C4.137,2.942,4.135,2.942,4.131,2.942c0.001,0.002,0.002,0.012,0.004,0.012
			C4.135,2.953,4.141,2.943,4.143,2.941z M2,10.949V4.947c0-0.553,0.23-1.082,0.635-1.459C2.751,3.38,2.88,3.185,3.016,2.973
			c-0.009,0-0.019,0-0.025,0c-0.503,0-0.824-0.02-0.855-0.021C2.091,2.95,2.047,2.948,2.003,2.948c-0.506,0-0.996,0.191-1.368,0.54
			C0.231,3.865,0,4.395,0,4.947v6.002C0,26.936,9.041,30.877,11.82,31.71C8.1,29.587,2,24.08,2,10.949z"/>
	</g>
</g>
<path fill="#B8BDBE" d="M14.004,15.97c-1.657,0-3-1.344-3-3c0-0.57,0.168-1.1,0.446-1.554c-0.864,0.526-1.446,1.469-1.446,2.554
	c0,1.656,1.343,3,3,3c1.086,0,2.027-0.582,2.556-1.445C15.104,15.802,14.575,15.97,14.004,15.97z"/>
<path fill="#F0C890" d="M24.019,2.948c-0.046,0-0.093,0.002-0.139,0.005c-0.024,0.002-0.287,0.017-0.69,0.02
	c0.062,0.091,0.125,0.167,0.184,0.223c0.404,0.382,0.635,0.916,0.635,1.477v6.074c0,13.015-5.844,18.619-9.58,20.864
	c1.905-0.63,5.831-2.46,8.584-7.35c1.708-3.074,2.962-7.355,2.992-13.293v-5.31c-0.055-0.676-0.271-1.848-0.621-2.172
	C25.011,3.138,24.524,2.948,24.019,2.948z"/>
</svg>
