<?xml version="1.0" encoding="utf-8"?>
<!-- Generator: Adobe Illustrator 16.2.1, SVG Export Plug-In . SVG Version: 6.00 Build 0)  -->
<!DOCTYPE svg PUBLIC "-//W3C//DTD SVG 1.1//EN" "http://www.w3.org/Graphics/SVG/1.1/DTD/svg11.dtd">
<svg version="1.1" id="Слой_1" xmlns="http://www.w3.org/2000/svg" xmlns:xlink="http://www.w3.org/1999/xlink" x="0px" y="0px"
	 width="32px" height="24px" viewBox="0 0 32 24" enable-background="new 0 0 32 24" xml:space="preserve">
<path fill="#2494BC" d="M1,0h30c0.475,0,1,0.5,1,1v21c0,1.104-0.896,2-2,2c0,0-5.023,0-10.02,0c-1.437,0-2.701-5-3.976-5
	c-1.271,0-2.553,5-4.019,5c-5.435,0-9.987,0-9.987,0c-1.104,0-2-0.896-2-2V1C0,0.423,0.477,0,1,0z"/>
<path fill="#1F86A9" d="M31,0H1C0.477,0,0,0.423,0,1v1v13.052c4.182-0.979,7.309-4.729,7.309-9.206c0-0.318,0.184-0.586,0.443-0.73
	h16.496c0.26,0.144,0.443,0.412,0.443,0.73c0,4.476,3.125,8.228,7.309,9.206V2V1C32,0.5,31.475,0,31,0z"/>
<path fill="#5AAFCD" d="M17,4v9c0,0.554-0.447,1-1,1c-0.553,0-1-0.446-1-1V4H17z"/>
<g>
	<rect y="2" fill="#F4B459" width="5" height="4"/>
	<rect x="7" y="2" fill="#F4B459" width="18" height="4"/>
	<rect x="27" y="2" fill="#F4B459" width="5" height="4"/>
</g>
<path fill="#E4E7E7" d="M13,1h6c0.553,0,1,0.447,1,1v4c0,0.553-0.447,1-1,1h-6c-0.553,0-1-0.447-1-1V2C12,1.447,12.447,1,13,1z"/>
<path fill="#5AAFCD" d="M0,15.052v1.736C5.072,15.79,8.918,11.345,8.992,6H7.301C7.229,10.407,4.132,14.083,0,15.052z"/>
<path fill="#5AAFCD" d="M32,15.052c-4.132-0.969-7.229-4.645-7.301-9.052h-1.691c0.074,5.345,3.92,9.79,8.992,10.788V15.052z"/>
<g>
	<path fill="#1F86A9" d="M15.006,19c-1.271,0-2.553,5-4.019,5c0.33,0,0.663,0,1,0c1.274,0,2.409-3.772,3.519-4.762
		C15.339,19.089,15.172,19,15.006,19z"/>
</g>
<path fill="#1F86A9" d="M31,0h-1c0.475,0,1,0.5,1,1v21c0,1.104-0.896,2-2,2c0.628,0,1,0,1,0c1.104,0,2-0.896,2-2V1
	C32,0.5,31.475,0,31,0z"/>
<path fill="#1D7798" d="M31,0h-1c0.475,0,1,0.5,1,1v13.751c0.326,0.116,0.658,0.221,1,0.301V2V1C32,0.5,31.475,0,31,0z"/>
<rect x="31" y="2" fill="#DBA250" width="1" height="4"/>
<path fill="#519DB8" d="M31,16.54c0.328,0.098,0.66,0.182,1,0.248v-1.736c-0.342-0.08-0.674-0.186-1-0.302V16.54z"/>
</svg>
