<?xml version="1.0" encoding="utf-8"?>
<!-- Generator: Adobe Illustrator 16.2.1, SVG Export Plug-In . SVG Version: 6.00 Build 0)  -->
<!DOCTYPE svg PUBLIC "-//W3C//DTD SVG 1.1//EN" "http://www.w3.org/Graphics/SVG/1.1/DTD/svg11.dtd">
<svg version="1.1" id="Слой_1" xmlns="http://www.w3.org/2000/svg" xmlns:xlink="http://www.w3.org/1999/xlink" x="0px" y="0px"
	 width="32.003px" height="25.021px" viewBox="0 0 32.003 25.021" enable-background="new 0 0 32.003 25.021" xml:space="preserve">
<path fill="#665CBE" d="M10.984,17.048L5.78,18.835c-0.957,0.345-1.099,0.828-0.326,1.086c0.774,0.256,2.179,0.186,3.132-0.163
	l2.399-0.785v2.734c-0.167,0.027-0.349,0.057-0.517,0.086c-2.587,0.424-5.345,0.25-8.059-0.654c-2.528-0.714-2.954-2.204-1.8-3.066
	c1.067-0.795,2.88-1.395,2.88-1.395l7.496-2.68V17.048L10.984,17.048z M17.976,6.627v18.396l-5.985-1.68V-0.001
	c2.367,0.414,5.823,1.401,7.681,1.994c4.723,1.535,6.326,2.945,6.326,7.25c0,4.199-2.574,5.787-6.043,4.199V6.998
	c0-0.916-0.031-1.762-0.947-2.001C18.318,4.784,17.976,5.706,17.976,6.627z M31.736,19.634c-0.592,0.776-2.031,1.332-2.031,1.332
	l-10.721,4.04v-2.979l7.857-2.86c0.895-0.33,1.033-0.809,0.307-1.061c-0.729-0.251-2.047-0.175-2.938,0.163l-5.227,1.848v-3.099
	l0.305-0.102c0,0,1.66-0.565,3.959-0.813c2.301-0.245,4.447,0.033,6.5,0.848C32.062,17.723,32.324,18.853,31.736,19.634z"/>
</svg>
