<?xml version="1.0" encoding="utf-8"?>
<!-- Generator: Adobe Illustrator 16.2.1, SVG Export Plug-In . SVG Version: 6.00 Build 0)  -->
<!DOCTYPE svg PUBLIC "-//W3C//DTD SVG 1.1//EN" "http://www.w3.org/Graphics/SVG/1.1/DTD/svg11.dtd">
<svg version="1.1" id="Слой_1" xmlns="http://www.w3.org/2000/svg" xmlns:xlink="http://www.w3.org/1999/xlink" x="0px" y="0px"
	 width="32px" height="32px" viewBox="0 0 32 32" enable-background="new 0 0 32 32" xml:space="preserve">
<path fill="#81B71A" d="M16,0c8.837,0,16,7.163,16,16c0,8.836-7.163,15.999-16,15.999S0,24.836,0,16C0,7.163,7.163,0,16,0z"/>
<path fill="#FFFFFF" d="M13.411,8.998c4.534,0,9.305,0.953,12.789,3.047c0.47,0.271,0.796,0.682,0.796,1.434
	c0,0.861-0.677,1.479-1.457,1.479c-0.314,0-0.501-0.077-0.796-0.242c-2.794-1.714-7.132-2.658-11.326-2.658
	c-2.094,0-4.22,0.218-6.168,0.759c-0.224,0.058-0.508,0.173-0.792,0.173c-0.823,0-1.455-0.666-1.455-1.509
	c0-0.858,0.52-1.34,1.081-1.51C8.284,9.307,10.74,8.998,13.411,8.998z M13.097,14.424c4.042,0,7.951,1.028,11.025,2.91
	c0.515,0.303,0.705,0.686,0.705,1.248c0,0.684-0.532,1.235-1.203,1.235c-0.336,0-0.547-0.138-0.774-0.273
	c-2.512-1.523-5.992-2.536-9.805-2.536c-1.955,0-3.643,0.279-5.039,0.66c-0.301,0.084-0.47,0.176-0.751,0.176
	c-0.665,0-1.206-0.554-1.206-1.238c0-0.671,0.318-1.134,0.96-1.318C8.744,14.8,10.517,14.424,13.097,14.424z M13.309,19.58
	c3.379,0,6.39,0.792,8.98,2.381c0.386,0.229,0.612,0.465,0.612,1.049c0,0.569-0.453,0.988-0.96,0.988
	c-0.25,0-0.421-0.089-0.654-0.235c-2.237-1.384-5.027-2.111-7.989-2.111c-1.651,0-3.314,0.217-4.87,0.547
	c-0.252,0.057-0.57,0.157-0.761,0.157c-0.587,0-0.978-0.478-0.978-0.993c0-0.664,0.374-0.993,0.84-1.084
	C9.437,19.834,11.336,19.58,13.309,19.58z"/>
</svg>
