<?xml version="1.0" encoding="utf-8"?>
<!-- Generator: Adobe Illustrator 16.2.1, SVG Export Plug-In . SVG Version: 6.00 Build 0)  -->
<!DOCTYPE svg PUBLIC "-//W3C//DTD SVG 1.1//EN" "http://www.w3.org/Graphics/SVG/1.1/DTD/svg11.dtd">
<svg version="1.1" id="Слой_1" xmlns="http://www.w3.org/2000/svg" xmlns:xlink="http://www.w3.org/1999/xlink" x="0px" y="0px"
	 width="32px" height="25.018px" viewBox="0 0 32 25.018" enable-background="new 0 0 32 25.018" xml:space="preserve">
<path fill="#181818" d="M23.643,1.776c0.577,0.597,0.549,1.556-0.046,2.141c-0.604,0.596-1.578,0.596-2.182,0l-0.146-0.163
	c-1.213-1.013-3.033-0.954-4.177,0.172l-9.827,9.658c-0.646,0.586-1.621,0.586-2.226-0.008c-0.604-0.592-0.604-1.554,0-2.147
	c0.081-0.077,0.167-0.146,0.26-0.203l9.607-9.448C17.323-0.592,21.232-0.592,23.643,1.776z M1.81,16.802
	c-2.414-2.371-2.414-6.212,0-8.586l7.131-7.055c1.208-1.187,3.163-1.187,4.367,0l-9.315,9.202c-1.208,1.187-1.208,3.109,0,4.292
	c1.205,1.188,3.161,1.188,4.365,0l9.573-9.408c0.059-0.092,0.127-0.178,0.21-0.258c0.604-0.593,1.579-0.593,2.183,0
	c0.604,0.594,0.604,1.553,0,2.146l-9.782,9.667C8.132,19.173,4.221,19.173,1.81,16.802z M8.562,23.431
	c-0.09-0.053-0.17-0.119-0.246-0.197c-0.603-0.592-0.603-1.551,0-2.145c0.602-0.59,1.581-0.59,2.183,0l0.043,0.006
	c1.207,1.186,3.162,1.186,4.366,0l9.573-9.409c0.058-0.091,0.131-0.178,0.209-0.258c0.604-0.59,1.58-0.59,2.185,0
	c0.604,0.594,0.604,1.556,0,2.147l-9.78,9.666C14.747,25.546,10.987,25.607,8.562,23.431z M30.194,16.802l-7.136,7.057
	c-1.204,1.188-3.159,1.188-4.365,0l9.316-9.201c1.207-1.184,1.207-3.107,0-4.293s-3.162-1.187-4.366,0l-9.825,9.657
	c-0.647,0.588-1.625,0.588-2.228-0.006c-0.604-0.59-0.604-1.555,0-2.146c0.079-0.078,0.167-0.146,0.258-0.205l9.61-9.448
	c2.412-2.368,6.323-2.368,8.734,0C32.602,10.59,32.602,14.431,30.194,16.802z"/>
</svg>
