<?xml version="1.0" encoding="utf-8"?>
<!-- Generator: Adobe Illustrator 16.2.1, SVG Export Plug-In . SVG Version: 6.00 Build 0)  -->
<!DOCTYPE svg PUBLIC "-//W3C//DTD SVG 1.1//EN" "http://www.w3.org/Graphics/SVG/1.1/DTD/svg11.dtd">
<svg version="1.1" id="Слой_1" xmlns="http://www.w3.org/2000/svg" xmlns:xlink="http://www.w3.org/1999/xlink" x="0px" y="0px"
	 width="32px" height="32px" viewBox="0 0 32 32" enable-background="new 0 0 32 32" xml:space="preserve">
<path d="M16,0c8.837,0,16,7.163,16,16c0,8.836-7.163,15.999-16,15.999S0,24.836,0,16C0,7.163,7.163,0,16,0z"/>
<path fill="#FFFFFF" d="M10.533,18.711h0.733c0.404,1.898,1.058,3.277,1.96,4.14s1.937,1.293,3.103,1.293
	c1.133,0,1.938-0.296,2.415-0.888c0.478-0.591,0.717-1.214,0.717-1.868c0-0.762-0.249-1.382-0.748-1.862
	c-0.33-0.314-0.998-0.724-2.005-1.229l-1.619-0.819c-1.608-0.811-2.742-1.613-3.402-2.408c-0.661-0.795-1.186-1.775-1.186-2.941
	c0-1.241,0.632-2.399,1.507-3.476s2.216-1.614,4.023-1.614c0.919,0,1.809,0.141,2.668,0.422c0.858,0.281,1.349,0.422,1.471,0.422
	c0.277,0,0.468-0.081,0.574-0.242C20.85,7.479,20.936,7.266,21,7.001h0.758v5.532H21.05c-0.331-1.281-0.916-2.386-1.753-3.312
	c-0.838-0.927-1.855-1.39-3.053-1.39c-0.842,0-1.507,0.234-1.997,0.701c-0.489,0.468-0.733,1.037-0.733,1.707
	c0,0.803,0.229,1.403,0.688,1.8c0.45,0.406,1.46,1.002,3.028,1.788l1.877,0.943c0.837,0.422,1.504,0.89,2.002,1.401
	c0.93,0.959,1.395,2.124,1.395,3.496c0,1.281-0.499,2.49-1.496,3.626C20.009,24.432,18.411,25,16.213,25
	c-0.505,0-1.016-0.048-1.533-0.144c-0.517-0.095-1.028-0.241-1.532-0.439l-0.489-0.187c-0.114-0.033-0.224-0.061-0.329-0.08
	c-0.106-0.021-0.196-0.031-0.27-0.031c-0.26,0-0.439,0.076-0.537,0.229c-0.098,0.152-0.183,0.369-0.256,0.651h-0.733V18.711z"/>
</svg>
