<?xml version="1.0" encoding="utf-8"?>
<!-- Generator: Adobe Illustrator 16.2.1, SVG Export Plug-In . SVG Version: 6.00 Build 0)  -->
<!DOCTYPE svg PUBLIC "-//W3C//DTD SVG 1.1//EN" "http://www.w3.org/Graphics/SVG/1.1/DTD/svg11.dtd">
<svg version="1.1" id="Слой_1" xmlns="http://www.w3.org/2000/svg" xmlns:xlink="http://www.w3.org/1999/xlink" x="0px" y="0px"
	 width="32px" height="32px" viewBox="0 0 32 32" enable-background="new 0 0 32 32" xml:space="preserve">
<path fill="#E4E7E7" d="M23.994,15.347L7.331,32.01H0v-7.331L16.662,8.016L23.994,15.347z"/>
<path fill="#CCD0D2" d="M20.686,11.302c0.389,0.391,0.389,1.023,0,1.414L5.691,27.736c-0.39,0.391-1.021,0.391-1.411,0
	s-0.39-1.023,0-1.414l14.994-15.021C19.664,10.911,20.295,10.911,20.686,11.302z"/>
<rect x="13.304" y="12.521" transform="matrix(-0.7071 -0.7071 0.7071 -0.7071 22.0013 36.1547)" fill="#D0D3D3" width="10.368" height="2"/>
<rect x="17.48" y="12.511" transform="matrix(-0.7071 -0.7071 0.7071 -0.7071 21.9924 36.1325)" fill="#B7BBBD" width="1.998" height="2"/>
<g>
	<path fill="#E8AB54" d="M30.672,7.683c1.76-1.76,1.76-4.613,0-6.373s-4.613-1.76-6.373,0c-1.271,1.271-1.61,3.11-1.045,4.698
		l-2.746,2.745L16.33,4.574c-0.766-0.765-2.006-0.765-2.771,0s-0.766,2.006,0,2.771l11.082,11.083c0.766,0.765,2.006,0.765,2.771,0
		s0.766-2.005,0-2.771l-4.179-4.179l2.749-2.749C27.568,9.291,29.402,8.952,30.672,7.683z"/>
</g>
<path fill="#EDBE7C" d="M27.992,2.024c0.553,0,1,0.447,1,1s-0.447,1-1,1s-1-0.447-1-1S27.439,2.024,27.992,2.024z"/>
<rect x="21.664" y="7.689" transform="matrix(-0.7071 0.7071 -0.7071 -0.7071 44.9892 0.5963)" fill-rule="evenodd" clip-rule="evenodd" fill="#D89F50" width="1.414" height="3.854"/>
</svg>
