<?xml version="1.0" encoding="utf-8"?>
<!-- Generator: Adobe Illustrator 16.2.1, SVG Export Plug-In . SVG Version: 6.00 Build 0)  -->
<!DOCTYPE svg PUBLIC "-//W3C//DTD SVG 1.1//EN" "http://www.w3.org/Graphics/SVG/1.1/DTD/svg11.dtd">
<svg version="1.1" id="Слой_1" xmlns="http://www.w3.org/2000/svg" xmlns:xlink="http://www.w3.org/1999/xlink" x="0px" y="0px"
	 width="28.018px" height="32.025px" viewBox="0 0 28.018 32.025" enable-background="new 0 0 28.018 32.025" xml:space="preserve">
<path fill="#E37948" d="M27.623,10.499c-0.81-1.436-2.603-1.927-4.005-1.098l-4.896,2.893c-1.022-0.809-2.312-1.295-3.716-1.295h-2
	c-1.404,0-2.693,0.486-3.716,1.295L4.397,9.402C2.994,8.573,1.201,9.064,0.393,10.5c-0.809,1.435-0.329,3.27,1.073,4.098
	l5.542,3.274v4.127c0,0.031,0.004,0.062,0.005,0.092c-1.717,0.375-3.005,1.9-3.005,3.73c0,2.108,2.259,5.238,3.82,3.819
	c1.1-0.998,1.584-1.448,2.092-1.968c1.15,0.831,2.561,1.326,4.088,1.326s2.938-0.495,4.089-1.326c0.506,0.52,0.992,0.97,2.091,1.968
	c1.562,1.419,3.82-1.711,3.82-3.819c0-1.83-1.288-3.354-3.005-3.729c0.001-0.032,0.005-0.061,0.005-0.093v-4.127l5.543-3.275
	C27.952,13.768,28.434,11.933,27.623,10.499z"/>
<path fill="#CC6D41" d="M20.655,12.592c0.52-0.544,1.027-1.267,1.243-2.174l-3.175,1.876c-1.022-0.809-2.312-1.295-3.716-1.295h-2
	c-1.404,0-2.693,0.486-3.716,1.295l-3.176-1.876c0.217,0.907,0.726,1.629,1.243,2.174c1.153,1.211,3.545,2.407,6.647,2.407
	C17.108,14.999,19.502,13.803,20.655,12.592z"/>
<path fill="#E4DCD7" d="M14.008,14.999c2.209,0,4,2.463,4,5.5s-1.791,5.5-4,5.5s-4-2.463-4-5.5S11.799,14.999,14.008,14.999z"/>
<g>
	<g>
		<path fill="#D77344" d="M8.508-0.001c-1.934,0-3.5,1.567-3.5,3.5s1.566,3.5,3.5,3.5c1.933,0,3.5-1.567,3.5-3.5
			S10.441-0.001,8.508-0.001z M19.508-0.001c-1.935,0-3.5,1.567-3.5,3.5s1.565,3.5,3.5,3.5c1.934,0,3.5-1.567,3.5-3.5
			S21.442-0.001,19.508-0.001z"/>
	</g>
</g>
<path fill="#E6875B" d="M6.008,8.499c0-1.159,0.638-2.018,1.027-2.816c0.913-1.869,3.293-3.684,6.973-3.684s6.061,1.813,6.973,3.684
	c0.389,0.798,1.027,1.657,1.027,2.816c0,1.351-0.67,2.375-1.354,3.093c-1.152,1.211-3.545,2.407-6.646,2.407
	c-3.103,0-5.494-1.196-6.647-2.407C6.677,10.875,6.008,9.849,6.008,8.499z"/>
<path fill="#E4E7E7" d="M13.008,6.999h2c1.104,0,2,0.896,2,2v1c0,1.657-1.345,3-3,3c-1.657,0-3-1.343-3-3v-1
	C11.008,7.894,11.904,6.999,13.008,6.999z"/>
<path fill="#787979" d="M14.008,5.999c0.553,0,1,0.448,1,1c0,0.553-0.447,1-1,1c-0.552,0-1-0.447-1-1
	C13.008,6.448,13.456,5.999,14.008,5.999z"/>
<path fill="#CBCDCD" d="M12.508,9.999c0,0,0.754,0.25,1.506,0.25c0.748,0,1.494-0.25,1.494-0.25c0.274,0,0.5,0.224,0.5,0.5
	s-0.226,0.5-0.5,0.5c0,0-0.751,0.25-1.501,0.25s-1.499-0.25-1.499-0.25c-0.276,0-0.5-0.224-0.5-0.5S12.232,9.999,12.508,9.999z"/>
<g>
	<g>
		<path fill="#D47549" d="M11.008,4.999c-0.552,0-1,0.447-1,1s0.448,1,1,1s1-0.447,1-1S11.56,4.999,11.008,4.999z M17.008,4.999
			c-0.554,0-1,0.447-1,1s0.446,1,1,1c0.553,0,1-0.447,1-1S17.561,4.999,17.008,4.999z"/>
	</g>
</g>
<path fill="#CE602E" d="M4.44,24.091c-0.267,0.522-0.432,1.104-0.432,1.73c0,2.108,2.259,5.238,3.82,3.819
	c0.054-0.048,0.091-0.082,0.141-0.128c0.125-0.966-0.093-2.081-0.689-3.112C6.575,25.182,5.51,24.37,4.44,24.091z"/>
<path fill="#E4E7E7" d="M1.375,24.305c1.529-0.883,3.727,0.056,4.904,2.095c1.179,2.039,0.894,4.409-0.638,5.293
	c-1.53,0.883-3.727-0.056-4.905-2.095C-0.442,27.558-0.156,25.188,1.375,24.305z"/>
<path fill="#CE602E" d="M24.008,25.821c0-0.615-0.159-1.188-0.418-1.703c-1.075,0.272-2.147,1.082-2.854,2.295
	c-0.599,1.029-0.814,2.142-0.687,3.104c0.05,0.045,0.086,0.078,0.138,0.125C21.749,31.059,24.008,27.929,24.008,25.821z"/>
<path fill="#E4E7E7" d="M26.641,24.335c-1.529-0.877-3.728,0.054-4.904,2.077c-1.178,2.023-0.893,4.375,0.64,5.251
	c1.528,0.877,3.727-0.054,4.903-2.077C28.457,27.562,28.172,25.211,26.641,24.335z"/>
</svg>
