<?xml version="1.0" encoding="utf-8"?>
<!-- Generator: Adobe Illustrator 16.2.1, SVG Export Plug-In . SVG Version: 6.00 Build 0)  -->
<!DOCTYPE svg PUBLIC "-//W3C//DTD SVG 1.1//EN" "http://www.w3.org/Graphics/SVG/1.1/DTD/svg11.dtd">
<svg version="1.1" id="Слой_1" xmlns="http://www.w3.org/2000/svg" xmlns:xlink="http://www.w3.org/1999/xlink" x="0px" y="0px"
	 width="30px" height="32px" viewBox="0 0 30 32" enable-background="new 0 0 30 32" xml:space="preserve">
<g>
	<path fill="#EFC75E" d="M29,25h1V2c0-1.104-0.896-2-2-2H2C0.896,0,0,0.896,0,2v23h1c0.553,0,1,0.447,1,1s-0.447,1-1,1H0v3
		c0,1.104,0.896,2,2,2h26c1.104,0,2-0.896,2-2v-3h-1c-0.553,0-1-0.447-1-1S28.447,25,29,25z M7,27H5c-0.553,0-1-0.447-1-1
		s0.447-1,1-1h2c0.553,0,1,0.447,1,1S7.553,27,7,27z M13,27h-2c-0.553,0-1-0.447-1-1s0.447-1,1-1h2c0.553,0,1,0.447,1,1
		S13.553,27,13,27z M19,27h-2c-0.553,0-1-0.447-1-1s0.447-1,1-1h2c0.553,0,1,0.447,1,1S19.553,27,19,27z M25,27h-2
		c-0.553,0-1-0.447-1-1s0.447-1,1-1h2c0.553,0,1,0.447,1,1S25.553,27,25,27z"/>
</g>
<g>
	<g>
		<path fill="#D7B354" d="M24,4H6C4.896,4,4,4.896,4,6v13c0,1.105,0.896,2,2,2h18c1.104,0,2-0.895,2-2V6C26,4.896,25.104,4,24,4z
			 M24,18c0,0.553-0.447,1-1,1H7c-0.553,0-1-0.447-1-1V7c0-0.553,0.447-1,1-1h16c0.553,0,1,0.447,1,1V18z"/>
	</g>
	<g>
		<path fill="#D7B354" d="M24,4H6C4.896,4,4,4.896,4,6v13c0,1.105,0.896,2,2,2h18c1.104,0,2-0.895,2-2V6C26,4.896,25.104,4,24,4z
			 M24,18c0,0.553-0.447,1-1,1H7c-0.553,0-1-0.447-1-1V7c0-0.553,0.447-1,1-1h16c0.553,0,1,0.447,1,1V18z"/>
	</g>
</g>
<g>
	<g>
		<path fill="#C1A14C" d="M14.439,14.664h-1.575c0.731-1.025,2.066-2.347,2.066-3.678c0-1.217-0.853-1.992-1.912-1.992
			s-2.023,0.967-2.023,2.174c0,0.373,0.216,0.699,0.629,0.699c0.827,0,0.354-1.552,1.344-1.552c0.353,0,0.62,0.345,0.62,0.737
			c0,0.345-0.146,0.642-0.302,0.891c-0.654,1.054-1.43,1.916-2.145,2.864c-0.086,0.114-0.198,0.287-0.198,0.488
			c0,0.44,0.293,0.632,0.672,0.632h2.876c0.327,0,0.62-0.191,0.62-0.632S14.818,14.664,14.439,14.664z M19.385,9.108h-3.117
			c-0.474,0-0.637,0.324-0.637,0.66c0,0.326,0.172,0.661,0.637,0.661h2.205l-2.152,4.54c-0.061,0.134-0.086,0.22-0.086,0.335
			c0,0.277,0.24,0.68,0.715,0.68c0.388,0,0.482-0.191,0.724-0.728l2.136-4.827c0.104-0.239,0.197-0.44,0.197-0.633
			C20.005,9.548,19.824,9.108,19.385,9.108z"/>
	</g>
	<g>
		<path fill="#C1A14C" d="M14.439,14.664h-1.575c0.731-1.025,2.066-2.347,2.066-3.678c0-1.217-0.853-1.992-1.912-1.992
			s-2.023,0.967-2.023,2.174c0,0.373,0.216,0.699,0.629,0.699c0.827,0,0.354-1.552,1.344-1.552c0.353,0,0.62,0.345,0.62,0.737
			c0,0.345-0.146,0.642-0.302,0.891c-0.654,1.054-1.43,1.916-2.145,2.864c-0.086,0.114-0.198,0.287-0.198,0.488
			c0,0.44,0.293,0.632,0.672,0.632h2.876c0.327,0,0.62-0.191,0.62-0.632S14.818,14.664,14.439,14.664z M19.385,9.108h-3.117
			c-0.474,0-0.637,0.324-0.637,0.66c0,0.326,0.172,0.661,0.637,0.661h2.205l-2.152,4.54c-0.061,0.134-0.086,0.22-0.086,0.335
			c0,0.277,0.24,0.68,0.715,0.68c0.388,0,0.482-0.191,0.724-0.728l2.136-4.827c0.104-0.239,0.197-0.44,0.197-0.633
			C20.005,9.548,19.824,9.108,19.385,9.108z"/>
	</g>
</g>
<path fill="#E3BD59" d="M28,26h-2c0,0.553-0.447,1-1,1h-2c-0.553,0-1-0.447-1-1h-2c0,0.553-0.447,1-1,1h-2c-0.553,0-1-0.447-1-1h-2
	c0,0.553-0.447,1-1,1h-2c-0.553,0-1-0.447-1-1H8c0,0.553-0.447,1-1,1H5c-0.553,0-1-0.447-1-1H2c0,0.553-0.447,1-1,1H0v3
	c0,1.104,0.896,2,2,2h26c1.104,0,2-0.896,2-2v-3h-1C28.447,27,28,26.553,28,26z"/>
</svg>
