<?xml version="1.0" encoding="utf-8"?>
<!-- Generator: Adobe Illustrator 16.2.1, SVG Export Plug-In . SVG Version: 6.00 Build 0)  -->
<!DOCTYPE svg PUBLIC "-//W3C//DTD SVG 1.1//EN" "http://www.w3.org/Graphics/SVG/1.1/DTD/svg11.dtd">
<svg version="1.1" id="Слой_1" xmlns="http://www.w3.org/2000/svg" xmlns:xlink="http://www.w3.org/1999/xlink" x="0px" y="0px"
	 width="32px" height="32px" viewBox="0 0 32 32" enable-background="new 0 0 32 32" xml:space="preserve">
<path fill="#00A478" d="M16,0c8.837,0,16,7.163,16,16c0,8.836-7.163,15.999-16,15.999S0,24.836,0,16C0,7.163,7.163,0,16,0z"/>
<path fill="#FFFFFF" d="M19.872,10.389c-0.656,0-1.12,0.625-1.12,1.826c0,2.452,1.552,3.862,3.567,3.862
	c0.356,0,0.755-0.043,1.166-0.137v1.904c-0.671,0.151-1.346,0.216-1.906,0.218c-1.337,2.83-3.749,5.246-4.553,5.703
	c-0.512,0.289-0.994,0.306-1.554-0.031c-0.99-0.592-4.731-3.672-5.987-13.346h2.719c0.683,5.81,2.348,8.784,4.19,11.016
	c1.015-1.016,1.988-2.368,2.754-3.901c-1.819-0.925-2.923-2.954-2.923-5.319c0-2.387,1.375-4.197,3.727-4.197
	c2.286,0,3.533,1.426,3.533,3.878c0,0.91-0.195,1.948-0.557,2.751c-1.697,0.331-2.318-0.752-2.318-0.752
	c0.127-0.421,0.301-1.129,0.301-1.776C20.911,10.95,20.494,10.389,19.872,10.389z"/>
</svg>
