<?xml version="1.0" encoding="utf-8"?>
<!-- Generator: Adobe Illustrator 16.2.1, SVG Export Plug-In . SVG Version: 6.00 Build 0)  -->
<!DOCTYPE svg PUBLIC "-//W3C//DTD SVG 1.1//EN" "http://www.w3.org/Graphics/SVG/1.1/DTD/svg11.dtd">
<svg version="1.1" id="Слой_1" xmlns="http://www.w3.org/2000/svg" xmlns:xlink="http://www.w3.org/1999/xlink" x="0px" y="0px"
	 width="32px" height="32px" viewBox="0 0 32 32" enable-background="new 0 0 32 32" xml:space="preserve">
<path fill="#334D5B" d="M16,0C7.164,0,0,7.163,0,16c0,8.837,7.164,16,16,16s16-7.163,16-16C32,7.163,24.836,0,16,0z M16,20.251
	c-2.348,0-4.252-1.903-4.252-4.252c0-2.348,1.904-4.252,4.252-4.252c2.349,0,4.252,1.904,4.252,4.252
	C20.252,18.348,18.349,20.251,16,20.251z"/>
<path fill="#485F6C" d="M20.201,16.506c-0.233,1.939-1.756,3.462-3.695,3.695l5.073,10.779c4.342-1.619,7.783-5.06,9.401-9.401
	L20.201,16.506z"/>
<path fill="#485F6C" d="M15.494,11.798L10.421,1.02c-4.342,1.618-7.783,5.059-9.401,9.4l10.779,5.073
	C12.032,13.555,13.555,12.032,15.494,11.798z"/>
<path fill="#CDD1D2" d="M16,10c-3.313,0-6,2.687-6,6c0,3.314,2.687,6,6,6c3.314,0,6-2.686,6-6C22,12.686,19.314,10,16,10z M16,18
	c-1.104,0-2-0.896-2-2s0.896-2,2-2s2,0.896,2,2S17.104,18,16,18z"/>
</svg>
