<?xml version="1.0" encoding="utf-8"?>
<!-- Generator: Adobe Illustrator 16.2.1, SVG Export Plug-In . SVG Version: 6.00 Build 0)  -->
<!DOCTYPE svg PUBLIC "-//W3C//DTD SVG 1.1//EN" "http://www.w3.org/Graphics/SVG/1.1/DTD/svg11.dtd">
<svg version="1.1" id="Слой_1" xmlns="http://www.w3.org/2000/svg" xmlns:xlink="http://www.w3.org/1999/xlink" x="0px" y="0px"
	 width="26px" height="30px" viewBox="0 0 26 30" enable-background="new 0 0 26 30" xml:space="preserve">
<path fill="#2B414D" d="M13,20c4.971,0,9,2.238,9,5s-4.029,5-9,5c-4.971,0-9-2.238-9-5S8.029,20,13,20z"/>
<path fill="#22343F" d="M13,27c3.335,0,6.366-1.268,8.668-3.331C20.618,21.555,17.141,20,13,20c-4.14,0-7.618,1.555-8.667,3.669
	C6.634,25.732,9.665,27,13,27z"/>
<path fill="#3E4F58" d="M13,0c7.18,0,13,5.82,13,13s-5.82,13-13,13C5.82,26,0,20.18,0,13S5.82,0,13,0z"/>
<path fill="#465862" d="M13,0C6.158,0,0.562,5.289,0.051,12C0.562,18.711,6.158,24,13,24s12.438-5.289,12.949-12
	C25.438,5.289,19.842,0,13,0z"/>
<path fill="#E4E5E6" d="M13,6c3.866,0,7,3.135,7,7s-3.134,7-7,7s-7-3.135-7-7S9.134,6,13,6z"/>
<path fill="#5B717C" d="M13,8c2.762,0,5,2.237,5,5c0,2.762-2.238,5-5,5c-2.763,0-5-2.238-5-5C8,10.237,10.237,8,13,8z"/>
<path fill="#2B414D" d="M13,10c1.656,0,3,1.344,3,3s-1.344,3-3,3c-1.656,0-3-1.344-3-3S11.344,10,13,10z"/>
<path fill="#7C8A91" d="M14,11c0.553,0,1,0.447,1,1s-0.447,1-1,1c-0.553,0-1-0.447-1-1S13.447,11,14,11z"/>
</svg>
