<?xml version="1.0" encoding="utf-8"?>
<!-- Generator: Adobe Illustrator 16.2.1, SVG Export Plug-In . SVG Version: 6.00 Build 0)  -->
<!DOCTYPE svg PUBLIC "-//W3C//DTD SVG 1.1//EN" "http://www.w3.org/Graphics/SVG/1.1/DTD/svg11.dtd">
<svg version="1.1" id="Слой_1" xmlns="http://www.w3.org/2000/svg" xmlns:xlink="http://www.w3.org/1999/xlink" x="0px" y="0px"
	 width="32px" height="32px" viewBox="0 0 32 32" enable-background="new 0 0 32 32" xml:space="preserve">
<path fill="#FF8BAA" d="M16,0c8.837,0,16,7.163,16,16c0,8.836-7.163,15.999-16,15.999S0,24.836,0,16C0,7.163,7.163,0,16,0z"/>
<path fill-rule="evenodd" clip-rule="evenodd" fill="#FFF2F5" d="M16.022,12.312c0,0-1.146-2.325-3.725-2.325
	C9.48,9.987,8,12.259,8,14.532c0,3.773,8.022,9.455,8.022,9.455s7.974-5.637,7.974-9.455c0-2.317-1.527-4.545-4.249-4.545
	S16.022,12.312,16.022,12.312z"/>
</svg>
