<?xml version="1.0" encoding="utf-8"?>
<!-- Generator: Adobe Illustrator 16.2.1, SVG Export Plug-In . SVG Version: 6.00 Build 0)  -->
<!DOCTYPE svg PUBLIC "-//W3C//DTD SVG 1.1//EN" "http://www.w3.org/Graphics/SVG/1.1/DTD/svg11.dtd">
<svg version="1.1" id="Слой_1" xmlns="http://www.w3.org/2000/svg" xmlns:xlink="http://www.w3.org/1999/xlink" x="0px" y="0px"
	 width="32px" height="32px" viewBox="0 0 32 32" enable-background="new 0 0 32 32" xml:space="preserve">
<path fill="#324D5B" d="M16,0c8.837,0,16,7.163,16,16c0,8.836-7.163,15.999-16,15.999S0,24.836,0,16C0,7.163,7.163,0,16,0z"/>
<path fill="#FFFFFF" d="M25.989,10.455c0,0.113-0.056,0.104-0.167,0.104c-0.539,0.028-0.941,0.161-1.203,0.393
	c-0.259,0.236-0.463,0.559-0.607,0.979c0,0-3.363,8.551-4.514,11.391c-0.439,0.936-0.871,0.85-1.256-0.023
	c-0.477-1.094-1.465-3.498-2.195-5.275c-0.775,1.781-1.84,4.197-2.369,5.287c-0.512,0.99-0.938,0.861-1.273,0.027
	c-1.17-3.064-3.569-8.449-4.696-11.462c-0.206-0.556-0.367-0.91-0.516-1.051c-0.149-0.143-0.46-0.225-0.935-0.253
	C6.085,10.549,6,10.56,6,10.489v-0.422l0.043-0.041c0.767-0.005,4.488,0,4.488,0l0.04,0.041v0.4c0,0.111-0.06,0.104-0.183,0.104
	L9.92,10.592c-0.406,0.02-0.604,0.149-0.604,0.399c0,0.114,0.043,0.304,0.137,0.554c0.898,2.436,4.005,9.716,4.005,9.716
	l0.115,0.031l2.001-4.436c-0.242-0.599-0.4-0.987-0.4-0.987l-1.375-3.008c0,0-0.268-0.603-0.359-0.802
	c-0.602-1.332-0.59-1.403-1.201-1.491c-0.17-0.028-0.26,0.008-0.26-0.087v-0.421l0.053-0.042h3.562l0.094,0.034v0.421
	c0,0.096-0.062,0.082-0.186,0.082L15.243,10.6c-0.649,0.058-0.546,0.354-0.109,1.312l1.319,3.002l1.46-3.234
	c0.245-0.592,0.194-0.74,0.094-0.88c-0.058-0.077-0.251-0.201-0.676-0.218l-0.164-0.022c-0.042,0-0.08-0.015-0.122-0.047
	c-0.035-0.03-0.057-0.008-0.057-0.059v-0.399l0.051-0.041c1.035-0.006,3.359,0,3.359,0l0.044,0.045v0.396
	c0,0.114-0.058,0.112-0.17,0.112c-0.54,0.025-0.65,0.084-0.849,0.401c-0.107,0.175-0.322,0.545-0.541,0.961l-1.9,3.946
	c0,0-0.023,0.051-0.054,0.124l2.321,5.279l0.143,0.041l3.654-9.641c0.126-0.387,0.107-0.663-0.058-0.824
	c-0.165-0.159-0.276-0.253-0.702-0.272l-0.344-0.021c-0.042,0-0.084-0.017-0.117-0.047c-0.04-0.032-0.059-0.01-0.059-0.059v-0.399
	l0.051-0.041h4.133l0.041,0.041v0.399H25.989z"/>
</svg>
