<?xml version="1.0" encoding="utf-8"?>
<!-- Generator: Adobe Illustrator 16.2.1, SVG Export Plug-In . SVG Version: 6.00 Build 0)  -->
<!DOCTYPE svg PUBLIC "-//W3C//DTD SVG 1.1//EN" "http://www.w3.org/Graphics/SVG/1.1/DTD/svg11.dtd">
<svg version="1.1" id="Слой_1" xmlns="http://www.w3.org/2000/svg" xmlns:xlink="http://www.w3.org/1999/xlink" x="0px" y="0px"
	 width="32px" height="32px" viewBox="0 0 32 32" enable-background="new 0 0 32 32" xml:space="preserve">
<path fill="#9BC848" d="M15.595-0.003h0.813c3.267,0.08,6.185,1.023,8.755,2.864c-2.652-0.702-7.152,1.099-9.164,3.11
	c-1.987-1.986-6.509-3.812-9.161-3.11C9.406,1.021,12.327,0.077,15.595-0.003z M3.273,25.671c-2.11-2.677-3.191-5.755-3.271-9.273
	v-0.811c0.08-2.944,0.865-5.616,2.349-7.999c0.65-1.024,1.435-2,2.353-2.89v-0.03c0.241-0.243,0.509-0.483,0.784-0.729
	c0.077,0.029,0.161,0.056,0.241,0.082c2.272,0.838,4.488,2.462,6.65,4.813c-4.568,4.457-7.434,8.893-8.57,13.294
	C3.514,23.314,3.328,24.508,3.273,25.671z M27.294,27.292c-3.025,3.05-6.648,4.618-10.886,4.699h-0.813
	c-4.247-0.081-7.866-1.649-10.893-4.699c-0.191-0.188-0.406-0.403-0.593-0.62c0.023-0.109,0.08-0.22,0.105-0.324
	c0.027-0.135,0.081-0.271,0.134-0.378c1.569-4.385,4.81-8.567,9.757-12.542c0.595-0.514,1.213-1.002,1.892-1.488
	c0.678,0.486,1.301,0.975,1.922,1.488h0.022v0.025c4.621,3.756,7.757,7.646,9.435,11.701c0,0.031,0,0.08,0.022,0.109
	c0.086,0.243,0.194,0.486,0.274,0.729c0.025,0.107,0.078,0.218,0.105,0.352c0.03,0.107,0.08,0.215,0.105,0.325
	C27.7,26.889,27.485,27.104,27.294,27.292z M31.997,16.397c-0.08,3.49-1.137,6.565-3.215,9.246
	c-0.084-1.162-0.246-2.326-0.539-3.484c-1.166-4.404-4.031-8.836-8.594-13.296l-0.027-0.026c2.159-2.352,4.379-3.974,6.646-4.813
	c0.08-0.026,0.16-0.055,0.242-0.082c0.273,0.246,0.543,0.486,0.783,0.729l0.026,0.029c0.894,0.891,1.679,1.866,2.326,2.89
	c1.483,2.383,2.271,5.055,2.351,8V16.397L31.997,16.397z"/>
</svg>
