<?xml version="1.0" encoding="utf-8"?>
<!-- Generator: Adobe Illustrator 16.2.1, SVG Export Plug-In . SVG Version: 6.00 Build 0)  -->
<!DOCTYPE svg PUBLIC "-//W3C//DTD SVG 1.1//EN" "http://www.w3.org/Graphics/SVG/1.1/DTD/svg11.dtd">
<svg version="1.1" id="Слой_1" xmlns="http://www.w3.org/2000/svg" xmlns:xlink="http://www.w3.org/1999/xlink" x="0px" y="0px"
	 width="32px" height="18px" viewBox="0 0 32 18" enable-background="new 0 0 32 18" xml:space="preserve">
<path fill="#41545F" d="M32,17H0l1,1h30L32,17z"/>
<path fill="#2B414D" d="M0,6h32v11H0V6z"/>
<path fill="#41545F" d="M0,6h16v11H0V6z"/>
<path fill="#A3A6A8" d="M0,11h16v1H0V11z"/>
<path fill="#E4E7E7" d="M26.5,10c0.828,0,1.5,0.672,1.5,1.5S27.328,13,26.5,13S25,12.328,25,11.5S25.672,10,26.5,10z"/>
<path fill="#41545F" d="M0,6h32v1H0V6z"/>
<path fill="#2B414D" d="M4,0h24l4,6H0L4,0z"/>
<path fill="#54656E" d="M0,6h16v1H0V6z"/>
<polygon fill="#556771" points="28,0 16,0 16,6 32,6 "/>
</svg>
