<?xml version="1.0" encoding="utf-8"?>
<!-- Generator: Adobe Illustrator 16.2.1, SVG Export Plug-In . SVG Version: 6.00 Build 0)  -->
<!DOCTYPE svg PUBLIC "-//W3C//DTD SVG 1.1//EN" "http://www.w3.org/Graphics/SVG/1.1/DTD/svg11.dtd">
<svg version="1.1" id="Слой_1" xmlns="http://www.w3.org/2000/svg" xmlns:xlink="http://www.w3.org/1999/xlink" x="0px" y="0px"
	 width="32px" height="32px" viewBox="0 0 32 32" enable-background="new 0 0 32 32" xml:space="preserve">
<path fill-rule="evenodd" clip-rule="evenodd" fill="#9DCC7A" d="M16,0c8.837,0,16,7.163,16,16c0,8.836-7.163,15.999-16,15.999
	S0,24.836,0,16C0,7.163,7.163,0,16,0z"/>
<path fill="#FFFFFF" d="M21.133,8.232c0.219,1.753-1.026,2.728-1.965,3.792c-1.917,2.175-4.058,4.367-5.895,6.459
	c2.943,0.185,5.801,4.063,8.634,2.015c0.575,2.327-1.397,3.964-3.453,3.377c-1.232-0.352-2.213-1.331-3.275-2.015
	c-1.361-0.876-3.062-1.418-5.121-1.126c-0.364-2.093,0.918-2.979,1.905-4.088c1.579-1.772,3.196-3.708,4.61-5.651
	c-1.603,0-4.195,0.273-4.45-0.689c-0.219-0.826,0.728-1.86,1.15-2.311C15.218,8.909,18.836,8.644,21.133,8.232z"/>
</svg>
