<?xml version="1.0" encoding="utf-8"?>
<!-- Generator: Adobe Illustrator 16.2.1, SVG Export Plug-In . SVG Version: 6.00 Build 0)  -->
<!DOCTYPE svg PUBLIC "-//W3C//DTD SVG 1.1//EN" "http://www.w3.org/Graphics/SVG/1.1/DTD/svg11.dtd">
<svg version="1.1" id="Слой_1" xmlns="http://www.w3.org/2000/svg" xmlns:xlink="http://www.w3.org/1999/xlink" x="0px" y="0px"
	 width="24px" height="32px" viewBox="0 0 24 32" enable-background="new 0 0 24 32" xml:space="preserve">
<path fill="#CDCFCF" d="M11,16.97h11c0.553,0,1,0.447,1,1v8H10v-8C10,17.418,10.447,16.97,11,16.97z"/>
<path fill="#5A717B" d="M21.5,11.97c1.381,0,2.5,1.119,2.5,2.5c0,1.381-1.119,2.5-2.5,2.5s-2.5-1.119-2.5-2.5
	C19,13.089,20.119,11.97,21.5,11.97z"/>
<path fill="#CDCFCF" d="M12,10.97h8c0.553,0,1,0.447,1,1v8H11v-8C11,11.418,11.447,10.97,12,10.97z"/>
<path fill="#9FA1A1" d="M8,15.97c1.104,0,2,0.896,2,2H8C8,17.97,7.994,15.97,8,15.97z"/>
<path fill="#E4E7E7" d="M8,17.97h16v12c0,1.104-0.896,2-2,2H10c-1.104,0-2-0.896-2-2V17.97z"/>
<path fill="#E4E7E7" d="M3,1.97h5v16H3c-1.657,0-3-1.344-3-3v-10C0,3.314,1.342,1.97,3,1.97z"/>
<g>
	<g>
		<path fill="#AEAFAF" d="M14.5,11.97c-0.275,0-0.5,0.225-0.5,0.5c0,0.276,0.225,0.5,0.5,0.5c0.276,0,0.5-0.224,0.5-0.5
			C15,12.195,14.776,11.97,14.5,11.97z M16.5,13.97c-0.275,0-0.5,0.225-0.5,0.5c0,0.276,0.225,0.5,0.5,0.5
			c0.276,0,0.5-0.224,0.5-0.5C17,14.195,16.776,13.97,16.5,13.97z M18.5,12.97c0.276,0,0.5-0.224,0.5-0.5c0-0.275-0.224-0.5-0.5-0.5
			c-0.275,0-0.5,0.225-0.5,0.5C18,12.747,18.223,12.97,18.5,12.97z M14.5,15.97c-0.275,0-0.5,0.225-0.5,0.5
			c0,0.276,0.225,0.5,0.5,0.5c0.276,0,0.5-0.224,0.5-0.5C15,16.195,14.776,15.97,14.5,15.97z M18.5,15.97
			c-0.275,0-0.5,0.225-0.5,0.5c0,0.276,0.225,0.5,0.5,0.5c0.276,0,0.5-0.224,0.5-0.5C19,16.195,18.776,15.97,18.5,15.97z"/>
	</g>
</g>
<path fill="#EFC66C" d="M16-0.03c-1.021,0-3,4.076-3,7.666c0,3.59,1.344,3.334,3,3.334c1.657,0,3,0.256,3-3.334
	C19,4.046,17.042-0.03,16-0.03z"/>
<g>
	<g>
		<path fill="#DCB8B6" d="M19,21.97h-6v2h6V21.97z M11,25.97v2h10v-2H11z"/>
	</g>
</g>
<path fill="#CDCFCF" d="M2,14.97v-10c0-1.656,1.343-3,3-3H3c-1.657,0-3,1.344-3,3v10c0,1.656,1.343,3,3,3h2
	C3.342,17.97,2,16.627,2,14.97z"/>
<path fill="#CDCFCF" d="M10.009,29.97v-12H8v12c0,1.104,0.896,2,2,2h2.01C10.905,31.97,10.009,31.075,10.009,29.97z"/>
<path fill="#E4A160" d="M14.607,10.97h2.785c0.369-0.135,0.599-0.545,0.599-1.664c0-2.207-1.299-4.328-1.991-4.328
	c-0.678,0-1.99,2.121-1.99,4.328C14.008,10.425,14.238,10.836,14.607,10.97z"/>
</svg>
